<?xml version="1.0" encoding="UTF-8"?>
<!DOCTYPE svg PUBLIC "-//W3C//DTD SVG 1.1//EN" "http://www.w3.org/Graphics/SVG/1.1/DTD/svg11.dtd">
<svg version="1.1" xmlns="http://www.w3.org/2000/svg" xmlns:xlink="http://www.w3.org/1999/xlink" x="0" y="0" width="1151" height="988" viewBox="0, 0, 1151, 988">
  <defs>
    <clipPath id="Clip_1">
      <path d="M-0,988 L1150.9,988 L1150.9,0.508 L-0,0.508 z"/>
    </clipPath>
    <clipPath id="Clip_2">
      <path d="M-0,988 L1150.9,988 L1150.9,0.508 L-0,0.508 z"/>
    </clipPath>
  </defs>
  <g id="Layer_1">
    <g clip-path="url(#Clip_1)">
      <path d="M1052.32,714.458 C1052.27,707.603 1050.16,705.499 1043.32,705.466 C1033,705.415 1022.66,705.274 1012.34,705.545 C1008.5,705.645 1007.65,704.416 1007.67,700.749 C1007.83,676.095 1007.85,651.439 1007.69,626.785 C1007.65,620.108 1008.27,614.827 1013.88,609.387 C1024.98,598.612 1022.99,581.124 1010.98,569.802 C1005.98,565.092 1000.04,561.656 994.496,557.69 C990.706,554.98 986.787,552.301 985.087,547.647 C983.733,543.938 981.157,541.901 977.258,541.808 C973.333,541.714 970.812,543.824 969.088,547.289 C966.272,552.949 961.932,557.389 957.17,562.109 C951.788,546.677 942.57,535.983 925.857,535.633 C907.12,535.24 898.207,548.288 891.237,563.787 C884.874,558.509 876.611,555.757 873.13,547.628 C871.58,544.009 869.166,541.899 865.267,541.808 C861.341,541.716 858.754,543.793 857.113,547.301 C855.266,551.248 852.411,554.468 849.224,557.834 C848.054,555.573 847.06,553.479 845.915,551.469 C837.547,536.773 818.596,531.078 804.46,539.094 C795.534,544.156 789.511,551.872 786.149,561.38 C784.56,565.874 783.309,566.401 779.723,563.361 C776.438,560.576 772.612,558.44 769.139,555.864 C767.034,554.302 764.657,552.895 763.82,550.118 C763.232,545.368 760.817,541.994 756.079,540.883 C751.609,539.834 748.147,541.829 745.09,546.764 C742.012,551.732 738.427,556.267 734.239,560.361 C729.479,565.015 725.227,570.112 721.749,575.814 C721.682,575.923 721.626,576.032 721.561,576.141 C721.993,576.037 722.426,575.935 722.858,575.829 C717.106,586.211 716.745,596.088 725.723,604.996 C727.115,606.378 726.952,607.971 726.952,609.612 C726.954,640.098 726.898,670.584 727.031,701.07 C727.046,704.552 726.125,705.681 722.603,705.524 C716.451,705.25 710.277,705.354 704.116,705.479 C698.73,705.589 696.278,708.127 696.137,713.54 C696.041,717.203 695.968,720.878 696.165,724.532 C696.319,727.398 695.533,728.809 692.388,728.904 C688.74,729.014 684.941,729.079 681.503,730.13 C675.021,732.11 671.88,729.561 668.648,723.983 C651.472,694.33 633.876,664.919 616.295,635.502 C614.441,632.401 614.362,631.204 618.082,629.522 C643.355,618.099 665.947,602.748 685.13,582.574 C686.041,581.615 687.095,580.792 688.083,579.906 C688.502,579.935 688.92,579.952 689.339,579.974 C693.545,575.717 697.353,571.113 700.997,566.379 C719.419,542.448 732.264,515.729 740.644,486.792 C742.449,480.557 742.441,480.555 749.149,480.196 C767.547,479.211 783.088,467.818 789.283,450.469 C794.531,435.772 794.657,420.731 791.22,405.664 C787.332,388.625 775.974,376.209 756.556,376.589 C753.67,376.645 752.505,375.456 752.22,372.49 C750.719,356.875 747.66,341.516 743.91,326.307 C736.855,297.697 726.534,270.338 712,244.645 C710.812,242.545 710.538,240.974 712.24,238.829 C718.048,231.509 715.204,224.2 706.011,222.284 C704.377,221.943 702.73,221.738 701.064,221.623 C694.871,221.198 688.922,219.733 683.095,217.591 C665.174,211.005 649.159,201.167 635.322,188.16 C617.735,171.63 602.718,153.59 605.757,126.883 C606.308,122.038 602.196,117.475 597.772,116.825 C592.86,116.104 588.702,118.731 586.991,123.715 C586.122,126.249 585.779,128.877 585.633,131.563 C585.013,143.007 587.971,153.674 592.56,163.988 C598.552,177.456 607.71,188.598 618.257,198.702 C635.708,216.245 656.095,229.133 679.569,236.966 C683.621,238.318 686.498,240.397 688.775,243.982 C704.364,268.526 715.361,295.041 722.81,323.062 C728.037,342.726 732.466,362.635 733.456,382.979 C734.772,410.015 732.569,436.888 726.591,463.364 C716.445,508.304 696.852,547.959 662.211,579.368 C641.768,597.904 618.325,611.296 592.478,620.386 C546.125,636.688 498.166,640.112 449.578,636.296 C422.778,634.192 396.491,629.077 371.119,619.728 C343.365,609.502 318.525,594.556 297.479,573.817 C274.169,550.849 258.112,523.187 247.437,492.362 C239.986,470.847 235.821,448.613 233.476,426.013 C231.892,410.739 231.45,395.357 232.712,380.121 C235.058,351.781 241.459,324.182 251.132,297.432 C265.476,257.762 287.102,222.851 319.265,194.997 C353.083,165.709 392.308,147.792 436.072,139.349 C439.815,138.627 441.916,139.692 443.653,143.062 C448.034,151.558 453.838,159.114 460.567,165.855 C480.382,185.706 503.964,199.385 530.683,207.651 C540.906,210.814 551.43,212.636 562.192,212.192 C567.574,211.971 572.53,210.654 574.234,204.488 C574.773,196.353 571.481,192.631 563.308,192.678 C556.1,192.719 549.018,192.013 542.018,190.333 C518.841,184.772 498.437,173.673 480.74,158.009 C465.696,144.694 453.889,129.221 454.395,107.471 C454.499,102.965 450.889,99.473 446.765,98.82 C441.906,98.05 437.828,100.339 436.023,104.981 C434.795,108.142 434.28,111.479 434.988,114.802 C435.711,118.192 434.445,119.651 431.173,120.335 C422.531,122.14 413.948,124.208 405.469,126.701 C362.619,139.295 324.763,160.519 293.29,192.403 C272.158,213.811 255.743,238.56 243.03,265.845 C227.464,299.255 218.554,334.478 213.895,370.868 C213.362,375.029 212.203,376.584 207.904,376.706 C193.682,377.11 184.08,384.892 178.742,397.45 C172.497,412.142 171.977,427.609 175.754,443.056 C181.441,466.323 195.334,478.099 219.27,480.162 C222.874,480.472 223.961,482.386 224.83,485.382 C232.166,510.674 242.716,534.476 257.637,556.285 C263.825,565.331 270.839,573.687 277.981,581.956 C278.44,581.946 278.898,581.932 279.356,581.929 C287.021,588.582 294.109,595.864 302.134,602.127 C318.112,614.595 335.475,624.656 354.132,632.478 C357.322,633.816 358.54,634.571 356.331,638.245 C338.5,667.904 320.872,697.684 303.335,727.517 C301.718,730.267 300.064,731.099 297.011,730.728 C266.947,727.07 236.875,723.476 206.786,720.035 C204.066,719.724 202.858,718.683 201.662,716.352 C197.024,707.319 191.402,699.146 181.001,695.851 C177.592,694.771 174.009,694.217 170.668,695.262 C167.131,696.368 166.105,694.829 164.922,692.008 C161.066,682.812 157.112,673.648 152.87,664.625 C151.142,660.95 150.929,657.472 151.461,653.542 C156.132,619.074 158.104,584.619 150.087,550.314 C147.461,539.078 143.508,528.325 137.668,518.362 C136.188,515.837 135.987,513.987 137.864,511.731 C140.025,509.134 141.522,511.715 142.933,512.439 C154.04,518.139 165.698,521.66 178.218,522.279 C182.054,522.469 185.537,522.06 188.163,518.899 C188.429,519.135 188.684,519.378 188.942,519.619 C188.966,519.584 188.994,519.558 189.019,519.522 C192.563,511.394 189.546,505.793 180.887,504.486 C179.08,504.214 177.291,503.813 175.465,503.669 C163.493,502.725 153.071,497.822 143.337,491.136 C141.196,489.666 139.734,487.767 139.007,485.249 C137.43,479.78 135.577,474.467 130.973,470.627 C129.627,469.505 129.426,467.736 129.136,466.093 C127.204,455.123 120.592,447.902 110.627,443.684 C107.036,442.163 105.123,439.832 104.01,436.248 C97.868,416.479 98.271,396.99 106.168,377.752 C114.949,357.66 128.504,340.739 142.293,324.049 C155.192,308.437 163.803,290.913 168.023,271.151 C170.25,260.72 171.733,250.169 173.285,239.631 C176.259,219.424 180.881,199.662 190.276,181.39 C207.621,147.655 232.796,120.322 261.748,96.387 C285.604,76.665 312.733,63.879 343.94,60.838 C345.398,60.352 346.899,60.262 348.416,60.323 C351.412,60.297 354.415,60.41 357.408,60.244 C362.85,59.944 365.894,57.78 366.999,52.504 C367.823,48.568 370.254,46.529 373.423,44.802 C384.737,38.639 396.541,33.77 409.058,30.567 C429.922,25.228 451.026,21.579 472.54,20.146 C491.346,18.894 510.19,18.122 528.857,20.759 C581.771,28.234 630.055,47.596 673.574,78.683 C698.238,96.301 720.152,116.82 738.801,140.772 C748.119,152.495 756.844,164.62 764.212,177.677 C771.659,190.677 778.609,203.948 785.681,217.154 C795.037,234.627 804.859,251.828 816.222,268.106 C829.088,286.535 842.22,304.783 854.059,323.911 C870.538,350.536 881.493,378.967 882.565,410.65 C882.391,414.32 883.032,418.035 882.032,421.669 C881.524,423.706 881.738,425.862 881.033,427.866 C880.098,439.321 876.823,450.147 871.292,460.135 C857.839,484.432 839.093,501.521 809.917,503.926 C807.611,504.116 805.272,504.418 803.01,504.961 C798.198,506.116 795.826,510.1 796.903,514.991 C799.715,521.49 801.643,522.699 808.757,522.248 C811.745,522.058 814.752,521.899 817.7,521.422 C847.987,516.515 869.634,499.163 884.714,473.371 C902.395,443.128 903.734,410.535 896.263,377.142 C889.953,348.932 876.749,323.755 860.441,300.267 C834.804,263.34 809.886,226.079 789.396,185.902 C762.144,132.468 723.198,89.124 672.958,56.146 C628.562,27.003 580.04,8.347 527.302,2.363 C484.019,-2.548 441.226,2.552 399.374,14.606 C380.561,20.024 362.398,26.98 348.31,41.495 C347.122,42.719 345.716,42.748 344.203,42.847 C325.892,44.052 308.494,48.86 291.844,56.427 C264.263,68.962 241.343,87.729 220.712,109.616 C199.337,132.293 180.482,156.629 168.424,185.711 C159.461,207.329 156.505,230.278 153.056,253.127 C149.802,274.68 143.575,294.918 128.905,311.835 C122.476,319.249 116.718,327.245 110.671,334.989 C87.307,364.909 76.025,398.011 84.066,436.185 C84.647,438.944 83.818,440.031 80.819,440.137 C70.664,440.497 60.572,441.585 50.67,443.985 C30.673,448.833 14.415,459.106 4.451,477.534 C-3.885,492.95 -0.363,507.059 13.765,517.423 C15.951,519.026 16.234,520.26 15.424,522.752 C13.417,528.928 12.224,535.3 11.909,541.83 C10.735,566.177 19.294,587.52 32.269,607.428 C50.041,634.697 73.598,656.468 98.775,676.643 C100.659,678.153 102.118,679.727 102.913,682.035 C105.563,689.739 108.185,697.456 111.101,705.061 C112.187,707.895 111.615,708.959 108.813,710.07 C100.628,713.315 93.726,718.465 88.114,725.294 C75.041,741.202 77.386,764.47 97.064,773.95 C104.385,777.477 106.764,783.006 107.026,790.7 C107.638,808.594 121.336,824.806 138.812,829.052 C148.04,831.294 156.692,829.958 164.558,824.6 C166.733,823.118 168.761,822.452 171.454,822.621 C180.838,823.211 189.294,820.483 196.229,814.08 C198.458,812.022 200.473,811.439 203.315,811.902 C215.133,813.826 226.974,815.612 238.809,817.435 C267.748,821.893 296.703,826.248 325.614,830.874 C331.622,831.836 335.561,830.038 339.287,825.242 C354.816,805.253 370.676,785.52 386.458,765.729 C387.053,764.982 387.233,763.392 388.158,763.677 C388.158,774.757 388.296,785.569 388.127,796.376 C387.857,813.686 387.397,830.994 386.974,848.302 C386.941,849.635 387.637,851.33 385.346,851.845 C380.183,853.006 378.889,856.874 378.582,861.582 C376.767,889.485 374.862,917.382 373.005,945.281 C372.264,956.409 371.445,967.533 370.899,978.67 C370.561,985.544 374.48,988.836 381.226,987.819 C385.71,987.143 386.693,983.496 387.851,979.999 C389.002,978.883 389.37,977.455 389.456,975.922 C390.313,960.481 391.576,945.067 392.501,929.632 C393.525,912.534 394.923,895.46 395.815,878.352 C396.126,872.381 396.961,872.015 403.032,872.789 C420.706,875.043 438.445,876.28 456.272,876.434 C494.218,876.761 532.132,876.165 570.001,873.457 C578.191,872.871 578.24,873.217 579.227,881.333 C583.006,912.395 586.516,943.488 590.373,974.54 C590.612,976.471 590.322,978.629 592.382,979.887 C593.35,983.706 594.562,987.326 599.312,987.83 C606.341,988.576 609.952,985.096 609.111,977.803 C604.693,939.494 600.153,901.2 595.627,862.904 C595.334,860.431 595.111,857.701 592.937,856.135 C590.545,854.412 590.395,852.131 590.259,849.602 C588.813,822.712 587.325,795.824 585.849,768.936 C585.396,767.261 584.96,765.587 585.985,763.953 C586.47,764.374 587.037,764.731 587.43,765.226 C603.074,784.91 618.91,804.447 634.205,824.399 C638.706,830.27 643.469,831.916 650.491,830.638 C664.557,828.079 678.729,826.098 692.865,823.933 C726.24,818.823 759.622,813.766 792.993,808.638 C800.025,807.558 802.765,804.124 801.548,797.336 C801.012,794.343 801.91,794.046 804.43,793.973 C813.41,793.713 822.406,793.522 831.357,792.809 C857.594,790.718 883.076,785.552 906.556,772.99 C917.885,766.93 929.053,760.495 937.114,750.155 C939.255,747.409 941.33,746.644 944.553,746.653 C977.371,746.748 1010.19,746.724 1043.01,746.701 C1050.02,746.696 1052.29,744.416 1052.33,737.447 C1052.37,729.785 1052.39,722.121 1052.32,714.458" fill="#5F3900"/>
    </g>
    <path d="M188.163,518.899 C191.028,510.789 188.395,506.469 179.92,505.789 C166.002,504.671 153.378,500.158 142.016,492.02 C139.747,490.395 138.398,488.583 137.68,485.738 C136.308,480.307 134.93,474.64 129.402,471.537 C127.986,470.743 128.128,469.391 127.997,468.061 C126.841,456.403 120.196,448.878 109.641,444.782 C105.975,443.36 104.163,441.273 102.992,437.637 C96.374,417.086 96.6,396.853 105.172,376.883 C117.678,361.957 134.977,353.077 150.016,341.348 C156.448,336.332 162.881,331.388 168.149,325.028 C174.892,316.887 177.914,307.218 179.672,297.195 C184.477,269.818 189.153,242.427 196.281,215.525 C201.807,194.668 209.438,174.683 220.513,156.082 C225.827,147.158 232.39,139.174 239.349,131.579 C262.226,106.607 287.796,84.956 318.424,69.945 C326.295,66.087 334.102,61.773 343.01,60.495 C344.602,60.195 346.027,59.184 347.737,59.365 C350.892,59.266 354.047,59.173 357.202,59.068 C362.723,58.884 365.696,56.396 365.892,50.988 C365.996,48.122 367.487,46.901 369.527,45.619 C383.785,36.657 399.491,31.445 415.721,27.48 C449.401,19.252 483.622,15.804 518.123,18.265 C550.497,20.575 581.528,29.482 611.356,42.206 C647.647,57.685 680.256,78.838 708.939,106.07 C719.587,116.179 729.276,127.087 738.683,138.295 C739.408,139.16 739.828,140.282 740.389,141.284 C737.769,141.766 736.523,139.7 735.038,138.257 C730.186,133.538 725.446,128.703 720.077,123.354 C720.557,133.609 719.635,142.938 717.222,152.117 C714.274,163.33 708.778,173.062 700.332,180.985 C697.653,183.499 697.015,185.157 700.371,187.518 C704.064,190.115 706.772,193.757 709.64,197.219 C713.928,202.397 714.505,202.471 720.628,200.133 C734.5,194.836 747.694,188.237 759.957,179.816 C761.564,178.712 762.997,177.157 765.184,177.142 C775.859,194.78 784.918,213.303 794.862,231.341 C808.467,256.02 825.399,278.486 841.215,301.697 C854.817,321.658 867.479,342.134 875.446,365.135 C880.481,379.67 883.161,394.648 883.731,410.01 C882.957,413.577 883.776,417.211 883.275,420.79 C881.465,422.946 883.208,425.746 881.966,428.006 C881.141,444.804 874.699,459.553 864.947,472.89 C853.206,488.949 838.174,500.421 818.171,504.27 C814.439,504.989 810.637,505.394 806.848,505.749 C799.754,506.414 798.187,507.801 796.902,514.991 C790.917,517.833 787.364,523.092 783.828,528.313 C778.231,536.578 772.685,544.86 763.82,550.117 C762.4,549.267 762.305,547.653 761.612,546.372 C758.665,540.924 750.537,539.822 747.652,545.044 C742.915,553.616 735.77,560.022 729.658,567.357 C727.34,570.138 725.121,573.002 722.858,575.829 C714.937,580.752 705.923,580.702 697.103,581.304 C694.096,581.51 690.798,582.189 688.083,579.906 C700.637,565.604 711.712,550.269 720.564,533.382 C729.093,517.113 735.651,500.062 740.55,482.381 C741.253,479.847 742.222,478.967 744.874,478.917 C775.655,478.348 790.313,457.987 791.856,430.779 C792.442,420.436 791.838,410.175 788.227,400.266 C782.844,385.495 772.151,377.658 756.392,377.946 C751.771,378.031 751.261,376.439 750.797,372.386 C747.189,340.87 739.695,310.279 727.93,280.778 C722.868,268.086 716.891,255.835 710.016,244.025 C708.827,241.983 707.581,240.343 710.771,238.574 C714.307,236.613 714.802,232.862 713.766,229.318 C712.757,225.872 710.153,224.07 706.339,223.735 C674.984,220.981 650.339,204.858 628.606,183.649 C617.197,172.515 608.2,159.505 604.62,143.475 C603.477,138.361 603.658,133.235 604.334,128.099 C604.999,123.053 602.182,118.696 597.751,117.993 C592.841,117.214 588.998,119.812 587.925,124.935 C585.185,138.021 588.046,150.393 593.202,162.35 C599.092,176.013 608.413,187.261 618.779,197.722 C617.83,199.309 616.109,199.55 614.578,200.101 C603.093,204.236 591.075,205.309 579.037,206.227 C576.835,206.395 574.723,206.047 573.267,204.079 C573.236,197.033 570.632,193.655 564.694,193.888 C541.258,194.805 520.689,186.209 501.146,174.619 C485.686,165.451 471.992,154.117 462.177,138.743 C456.348,129.611 452.468,119.874 453.341,108.682 C453.703,104.036 450.463,100.353 446.279,99.886 C441.387,99.341 437.969,101.818 436.845,106.673 C436.122,109.795 435.885,112.937 436.639,116.065 C437.394,119.196 436.819,120.621 433.109,121.356 C402.715,127.372 373.786,137.469 346.822,152.951 C306.676,176 275.757,208.086 253.336,248.427 C234.208,282.843 222.997,319.926 217.003,358.694 C216.191,363.945 215.499,369.221 214.977,374.508 C214.755,376.749 213.973,377.613 211.664,377.848 C189.919,380.056 180.814,387.982 176.573,409.065 C173.878,422.466 174.346,435.843 178.811,448.942 C184.996,467.088 200.126,478.437 219.397,478.796 C223.315,478.869 224.882,480.231 225.892,483.832 C235.926,519.624 252.399,551.951 277.776,579.435 C278.433,580.147 278.837,581.093 279.359,581.93 C275.872,584.276 271.918,583.283 268.237,583.125 C252.071,582.435 236.728,578.715 222.999,569.696 C218.945,567.031 215.364,563.9 212.555,559.868 C203.445,546.791 197.406,531.892 188.163,518.899" fill="#CAAA96"/>
    <g clip-path="url(#Clip_2)">
      <path d="M387.851,979.999 C389.023,960.416 390.147,940.829 391.384,921.25 C392.349,905.979 393.561,890.724 394.426,875.449 C394.655,871.393 395.377,870.002 400.107,870.649 C441.323,876.289 482.738,875.541 524.175,874.072 C541.634,873.454 559.068,872.571 576.475,871.135 C578.709,870.951 579.752,871.333 580.042,873.854 C582.955,899.126 586.009,924.382 588.982,949.648 C590.167,959.721 591.25,969.806 592.381,979.887 C541.166,979.921 489.95,979.957 438.735,979.988 C421.773,979.999 404.812,979.996 387.851,979.999" fill="#FF7164"/>
      <path d="M1150.9,500.286 C1150.87,505.377 1148.46,508.666 1143.49,510.106 C1134.87,512.602 1126.28,515.192 1117.58,517.372 C1114.64,518.112 1113.58,519.641 1113.01,522.315 C1110.68,533.198 1108.24,544.053 1105.84,554.92 C1104.58,560.65 1101.35,563.226 1095.27,563.303 C1089.18,563.38 1085.73,560.91 1084.44,555.284 C1081.91,544.274 1079.34,533.27 1077.12,522.196 C1076.52,519.21 1075.12,518.064 1072.43,517.342 C1063.77,515.019 1055.16,512.516 1046.54,510.05 C1041.88,508.717 1038.83,504.904 1039.2,500.154 C1039.56,495.668 1041.09,491.762 1046.2,490.386 C1054.86,488.053 1063.43,485.385 1072.12,483.168 C1075.09,482.41 1076.52,481.252 1077.15,478.078 C1079.27,467.324 1081.78,456.645 1084.19,445.947 C1085.53,439.966 1089.56,436.765 1095.4,436.929 C1101.21,437.093 1104.61,440.081 1105.94,446.115 C1108.29,456.825 1110.72,467.519 1113,478.242 C1113.58,480.965 1114.8,482.402 1117.7,483.123 C1126.23,485.251 1134.67,487.776 1143.14,490.165 C1148.34,491.631 1150.92,495.013 1150.9,500.286" fill="#FFCE00"/>
    </g>
    <path d="M573.267,204.079 C586.695,205.289 599.695,203.072 612.502,199.23 C614.561,198.612 616.688,198.222 618.782,197.724 C637.627,215.631 658.886,229.543 684.051,236.905 C686.268,237.553 687.208,239.137 688.298,240.804 C709.178,272.724 721.676,307.899 729.387,345.053 C740.858,400.329 735.546,454.192 714.501,506.174 C688.489,570.424 640.099,610.183 573.711,627.571 C510.268,644.188 446.439,644.05 383.428,625.096 C311.16,603.358 264.957,554.941 243.134,483.11 C232.183,447.064 227.701,410.013 232.19,372.568 C238.876,316.788 256.276,264.84 292.476,220.65 C324.429,181.643 365.601,156.812 413.803,143.188 C421.95,140.885 430.32,139.374 438.572,137.435 C440.489,136.985 441.93,136.771 443.07,139.03 C456.361,165.351 478.533,182.271 503.922,195.445 C521.804,204.724 540.727,210.892 561.213,210.766 C566.394,210.735 571.352,210.096 573.267,204.079" fill="#FEF7E9"/>
    <path d="M480.646,858.304 C456.498,858.314 432.384,857.766 408.35,855.012 C404.607,854.584 403.676,853.419 403.773,849.852 C404.845,810.582 405.775,771.309 406.751,732.037 C406.978,722.885 407.259,713.733 407.459,704.58 C407.571,699.471 404.265,695.724 399.518,695.423 C394.841,695.126 391.16,698.408 390.874,703.683 C390.415,712.154 390.184,720.641 390.041,729.124 C389.986,732.388 389.299,735.098 387.154,737.778 C367.59,762.221 348.163,786.774 328.733,811.324 C327.412,812.994 326.241,814.004 323.786,813.618 C285.993,807.68 248.187,801.816 210.359,796.095 C207.381,795.645 206.222,794.688 206.549,791.743 C206.674,790.612 206.682,789.28 206.207,788.3 C202.733,781.137 205.16,774.457 207.186,767.483 C209.701,758.825 210.807,749.859 209.18,740.823 C208.646,737.855 209.367,737.227 212.426,737.591 C242.502,741.173 272.608,744.5 302.678,748.129 C308.124,748.787 311.411,746.903 314.108,742.327 C333.29,709.791 352.661,677.368 371.805,644.81 C373.812,641.398 375.44,640.195 379.545,641.595 C386.605,644.003 395.084,643.927 400.866,647.93 C406.634,651.923 409.737,659.705 414.157,665.718 C424.59,679.912 436.49,692.623 451.644,701.928 C453.318,702.955 453.799,703.776 453.138,705.83 C450.277,714.724 452.043,722.609 459.129,728.945 C460.565,730.229 460.343,731.467 460.036,732.952 C455.659,754.157 453.32,775.673 450.239,797.077 C449.244,803.982 451.996,807.305 458.935,806.902 C477.418,805.83 495.902,806.872 514.384,806.711 C517.052,806.688 519.813,806.848 522.204,805.53 C526.309,803.266 526.034,799.404 525.641,795.442 C523.778,776.639 518.55,758.572 513.774,740.403 C513.437,739.118 513.211,737.792 512.754,736.551 C510.657,730.857 510.119,725.861 514.87,720.601 C519.242,715.759 519.703,709.056 519.003,702.583 C518.769,700.413 519.079,698.96 521.136,697.622 C540.855,684.792 556.303,667.704 569.539,648.48 C570.855,646.57 572.331,645.47 574.58,644.851 C581.148,643.043 587.723,641.191 594.134,638.905 C597.348,637.76 598.705,638.578 600.352,641.377 C619.514,673.923 639.036,706.26 657.927,738.961 C662.224,746.398 666.987,749.834 675.507,747.806 C679.531,746.849 683.804,746.966 687.855,746.095 C694.161,744.738 700.277,746.541 706.468,746.616 C727.792,746.876 749.121,746.817 770.446,746.623 C774.279,746.588 775.498,747.794 776.103,751.496 C778.171,764.132 780.554,776.72 783.087,789.271 C783.718,792.396 782.78,793.295 779.928,793.727 C740.29,799.736 700.663,805.814 661.032,811.873 C660.868,811.898 660.682,811.85 660.536,811.91 C650.619,815.987 644.901,811.322 638.959,803.466 C621.788,780.759 603.773,758.688 586.004,736.436 C584.451,734.492 583.68,732.52 583.54,730.115 C583.056,721.81 582.474,713.511 581.988,705.206 C581.608,698.706 578.534,695.434 572.962,695.731 C567.758,696.009 564.799,699.643 565.166,705.829 C567.304,741.879 569.534,777.923 571.699,813.971 C572.447,826.431 573.032,838.901 573.834,851.357 C574.036,854.491 572.464,854.748 569.952,854.919 C540.216,856.942 510.456,858.248 480.646,858.304" fill="#FEFEFE"/>
    <path d="M866.913,640.887 C827.594,640.887 788.275,640.824 748.957,640.982 C744.912,640.998 743.403,640.184 743.693,635.873 C744.096,629.903 743.893,623.882 743.751,617.888 C743.691,615.327 744.492,614.134 747.143,614.447 C747.964,614.544 748.807,614.458 749.64,614.458 C828.111,614.458 906.583,614.505 985.054,614.342 C989.855,614.333 991.454,615.442 991.026,620.321 C990.562,625.612 990.669,630.99 991.007,636.3 C991.245,640.041 990.137,641.007 986.369,640.981 C960.546,640.801 934.721,640.887 908.898,640.887 C894.903,640.887 880.908,640.887 866.913,640.887" fill="#FEFEFE"/>
    <path d="M344.056,60.773 C316.003,70.047 291.396,85.281 269.108,104.418 C254.437,117.013 240.733,130.623 228.996,146.025 C212.775,167.311 203.91,191.976 197.09,217.507 C190.14,243.526 185.43,270.005 181.203,296.563 C178.262,315.044 169.038,329.284 153.923,340.056 C141.468,348.933 129.212,358.088 116.796,367.021 C112.647,370.007 110.128,374.877 105.171,376.882 C113.73,357.075 126.921,340.295 140.713,324.088 C156.807,305.176 165.26,283.281 169.067,259.14 C171.941,240.92 173.94,222.518 179.44,204.801 C187.013,180.407 200.205,159.156 216.488,139.752 C236.047,116.443 257.198,94.828 283.887,79.48 C302.546,68.75 322.303,61.246 344.012,59.754 C344.268,59.97 344.359,60.193 344.287,60.423 C344.214,60.656 344.137,60.773 344.056,60.773" fill="#FEFEFE"/>
    <path d="M867.19,705.311 C827.871,705.311 788.551,705.241 749.232,705.411 C744.927,705.429 743.269,704.498 743.701,699.966 C744.126,695.508 743.901,690.974 743.753,686.48 C743.67,683.951 744.433,682.681 747.122,683.031 C747.777,683.116 748.453,683.041 749.12,683.041 C827.925,683.041 906.731,683.08 985.536,682.938 C989.885,682.93 991.513,683.861 991.008,688.376 C990.585,692.161 990.637,696.058 990.997,699.855 C991.401,704.113 990.227,705.47 985.647,705.433 C956.326,705.194 927.002,705.311 897.679,705.311 C887.516,705.311 877.353,705.311 867.19,705.311" fill="#FEFEFE"/>
    <path d="M82.267,456.872 C88.127,456.814 93.91,457.412 99.562,458.947 C110.199,461.835 112.935,466.7 110.09,477.466 C108.416,483.805 110.675,488.092 116.199,489.451 C118.417,489.997 122.145,487.84 122.119,492.851 C122.092,497.992 125.49,503.433 118.708,507.381 C104.258,515.793 93.071,514.163 84.538,497.242 C81.979,492.167 77.941,490.319 72.659,492.308 C68.006,494.061 64.251,497.137 61.429,501.138 C58.699,505.01 55.125,506.631 50.531,507.131 C45.718,507.655 40.925,507.932 36.094,507.917 C30.098,507.898 25.09,505.418 20.762,501.579 C16.239,497.567 15.603,492.129 19.156,485.615 C25.7,473.622 36.031,466.101 48.845,461.971 C59.684,458.477 70.917,457.196 82.267,456.872" fill="#FEFEFE"/>
    <path d="M874.476,732.294 C821.848,732.293 769.219,732.307 716.591,732.241 C714.625,732.239 711.487,733.503 710.906,730.915 C710.163,727.604 710.724,723.985 710.907,720.509 C710.922,720.214 712.304,719.855 713.078,719.768 C714.23,719.638 715.406,719.719 716.572,719.719 C821.828,719.718 927.085,719.713 1032.34,719.763 C1034.2,719.764 1037.2,718.666 1037.72,720.777 C1038.55,724.23 1038.81,728.123 1037.49,731.55 C1036.89,733.115 1034.45,732.262 1032.86,732.263 C984.896,732.3 936.931,732.294 888.966,732.294 C884.136,732.294 879.306,732.294 874.476,732.294" fill="#FEE164"/>
    <path d="M867.29,668.883 C827.495,668.883 787.699,668.801 747.905,668.998 C743.391,669.02 742.305,667.75 742.468,663.442 C742.786,655.043 742.541,655.033 751.026,655.033 C829.284,655.033 907.543,655.076 985.801,654.929 C990.607,654.92 993.12,655.751 992.096,661.067 C991.911,662.03 991.934,663.082 992.093,664.055 C992.746,668.048 991.052,668.985 987.175,668.971 C947.214,668.828 907.252,668.883 867.29,668.883" fill="#FF7164"/>
    <path d="M114.802,639.5 C114.03,638.995 113.504,638.821 113.245,638.457 C92.057,608.721 72.055,578.308 59.532,543.666 C57.553,538.191 55.994,532.588 54.763,526.883 C54.29,524.688 54.343,523.349 56.903,523.028 C62.968,522.265 67.899,519.307 71.874,514.808 C73.348,513.139 73.974,513.428 75.635,514.758 C84.037,521.483 88.32,530.685 92.038,540.389 C101.912,566.156 107.629,592.948 111.983,620.085 C113,626.42 113.832,632.784 114.802,639.5" fill="#FEFEFE"/>
    <path d="M765.184,177.142 C752.97,187.116 739.074,194.121 724.529,199.899 C713.961,204.098 713.996,203.884 706.399,195.283 C703.553,192.061 700.204,189.281 697.049,186.338 C695.907,185.273 694.732,184.487 696.594,182.883 C715.457,166.639 719.971,145.181 718.726,121.65 C718.721,121.568 718.946,121.473 719.293,121.211 C726.726,127.416 732.642,135.318 740.383,141.277 C750.126,152.219 757.899,164.512 765.184,177.142" fill="#FEFEFE"/>
    <path d="M915.857,747.267 C904.809,755.682 893.103,761.66 880.555,766.079 C859.141,773.618 836.901,776.183 814.379,777.015 C810.388,777.163 806.338,776.824 802.417,777.4 C798.712,777.944 797.547,776.63 797.018,773.212 C795.898,765.99 794.43,758.82 793.07,751.636 C792.455,748.389 793.198,746.658 797.043,746.667 C836.01,746.756 874.978,746.726 913.945,746.746 C914.369,746.747 914.793,746.969 915.857,747.267" fill="#FEF7E9"/>
    <path d="M96.869,747.685 C96.721,741.214 99.812,736.844 103.711,733.13 C112.008,725.228 122.052,721.987 133.453,722.937 C137.414,723.267 139.714,724.64 138.258,729.326 C136.308,735.599 134.099,741.552 128.552,745.716 C125.323,748.141 122.949,751.422 121.201,755.065 C119.399,758.819 120.135,762.329 123.179,765.038 C126.259,767.778 129.885,767.824 133.36,765.742 C136.674,763.756 139.272,760.923 141.749,757.972 C144.127,755.138 149.941,753.77 152.021,755.425 C155.212,757.964 156.116,765.681 153.49,768.577 C149.795,772.651 145.95,776.485 140.924,779.061 C137.064,781.039 135.761,784.565 136.964,788.794 C138.126,792.873 141.799,795.17 146.207,794.667 C148.014,794.461 149.804,793.945 151.609,793.912 C155.423,793.841 158.489,795.38 159.951,799.052 C161.399,802.688 160.327,805.945 157.625,808.627 C153.056,813.161 147.376,814.755 141.556,812.358 C131.653,808.281 123.95,801.682 123.795,789.945 C123.605,775.526 117.686,765.102 104.511,758.862 C99.663,756.565 96.632,752.785 96.869,747.685" fill="#FEF7E9"/>
    <path d="M109.776,662.372 C108.746,663.06 108.23,662.653 107.698,662.223 C84.162,643.203 62.132,622.724 45.607,597.05 C36.504,582.906 29.824,567.797 28.643,550.713 C28.097,542.815 29.108,535.116 31.514,527.583 C32.043,525.928 32.556,524.621 34.814,524.676 C37.049,524.731 37.582,525.87 37.932,527.7 C43.391,556.299 56.844,581.506 71.512,606.149 C82.332,624.326 94.487,641.621 107.121,658.58 C108.049,659.825 108.905,661.125 109.776,662.372" fill="#FEFEFE"/>
    <path d="M488.026,792.012 C481.701,792.012 475.375,791.917 469.053,792.057 C466.39,792.116 465.554,791.218 465.896,788.579 C468.097,771.607 470.333,754.647 473.652,737.843 C474.182,735.161 475.391,734.854 477.707,734.962 C483.342,735.227 489,735.415 494.562,734.074 C496.253,733.666 497.408,734.004 497.876,735.974 C502.057,753.575 507.722,770.819 510.406,788.787 C510.828,791.608 510.119,792.319 507.485,792.279 C501,792.178 494.513,792.246 488.026,792.246 C488.026,792.168 488.026,792.09 488.026,792.012" fill="#FF7164"/>
    <path d="M133.422,654.304 C130.24,625.849 126.014,597.747 119.013,570.129 C115.866,557.716 112.206,545.454 107.34,533.593 C106.166,530.732 105.408,528.761 109.819,528.618 C112.073,528.546 114.543,527.867 116.481,526.725 C121.33,523.867 123.173,526.197 125.246,530.405 C133.028,546.199 136.377,563.061 137.96,580.379 C140.17,604.563 137.928,628.573 134.842,652.537 C134.764,653.143 134.829,653.884 133.422,654.304" fill="#FEFEFE"/>
    <path d="M925.23,595.449 C922.083,595.146 919.239,595.079 916.481,594.557 C912.064,593.721 908.34,592.27 908.407,586.472 C908.435,583.975 907.107,581.346 905.982,578.974 C902.614,571.872 906.408,560.669 914.685,553.824 C921.376,548.29 928.886,548.339 936.015,553.963 C942.867,559.369 946.622,572.906 943.519,580.76 C942.853,582.445 941.884,584.317 942.082,585.982 C942.801,592.058 939.069,593.662 934.294,594.374 C931.185,594.838 928.05,595.121 925.23,595.449" fill="#FF7164"/>
    <path d="M775.124,425.197 C774.867,436.16 773.777,446.86 765.187,455.06 C760.646,459.395 755.004,461.125 748.954,461.981 C745.986,462.402 745.571,461.093 746.07,458.587 C750.05,438.617 751.895,418.432 751.902,398.082 C751.902,395.542 752.65,394.601 755.241,394.457 C763.054,394.022 768.809,397.379 771.864,404.629 C772.699,406.611 773.375,408.694 773.839,410.795 C774.882,415.524 775.304,420.331 775.124,425.197" fill="#FEF7E9"/>
    <path d="M819.972,595.269 C799.897,595.314 792.374,584.126 799.316,566.716 C801.189,562.018 803.833,557.868 807.597,554.45 C815.704,547.087 826.912,548.523 832.919,557.774 C834.822,560.705 836.085,563.949 837.276,567.24 C837.978,569.182 837.83,570.616 836.562,572.258 C832.198,577.908 829.078,584.078 829.876,591.504 C830.135,593.92 828.628,594.375 826.97,594.603 C824.18,594.987 821.358,595.144 819.972,595.269" fill="#FF7164"/>
    <path d="M192.056,425.51 C191.782,417.966 192.607,411.074 195.327,404.516 C198.018,398.027 202.905,394.731 209.979,394.468 C212.844,394.361 214.117,394.941 214.09,398.236 C213.921,418.557 215.926,438.695 219.888,458.625 C220.552,461.965 219.081,462.26 216.438,461.793 C205.046,459.78 197.506,453.334 194.201,442.237 C192.537,436.651 191.652,430.894 192.056,425.51" fill="#FEF7E9"/>
    <path d="M193.139,748.059 C192.749,754.628 192.224,760.271 190.396,765.661 C189.474,768.381 189.236,772.231 185.781,772.723 C182.604,773.175 180.529,770.189 178.62,767.926 C171.374,759.337 167.253,749.27 164.904,738.381 C163.661,732.62 163.296,726.82 164.482,721.051 C165.406,716.553 167.816,713.049 172.652,711.967 C177.412,710.904 180.202,713.983 182.554,717.251 C189.352,726.695 192.455,737.43 193.139,748.059" fill="#FEF7E9"/>
    <path d="M475.215,684.452 C472.93,685.772 470.907,686.46 469.546,687.813 C464.567,692.761 460.345,690.993 455.388,687.414 C442.135,677.847 431.63,665.836 421.798,651.708 C430.253,652.589 437.887,654.211 445.463,653.971 C455.719,653.647 461.128,658.189 464.321,667.487 C466.466,673.734 470.127,679.414 475.215,684.452" fill="#FF7164"/>
    <path d="M984.208,597.732 C979.552,597.731 974.895,597.738 970.239,597.727 C968.753,597.723 967.311,597.735 965.865,597.064 C957.91,593.371 956.658,589.187 962.101,582.369 C966.344,577.054 971.116,572.163 975.606,567.043 C976.726,565.765 977.599,565.863 978.919,566.851 C985.432,571.726 992.097,576.399 998.563,581.335 C1002.65,584.451 1004.94,588.55 1003.8,593.932 C1003.28,596.382 1002.34,598.033 999.168,597.821 C994.202,597.49 989.197,597.733 984.208,597.732" fill="#FEFEFE"/>
    <path d="M761.407,597.73 C756.589,597.731 751.77,597.692 746.952,597.751 C745.071,597.773 743.406,597.401 741.761,596.407 C734.608,592.083 733.81,589.057 739.007,582.532 C743.24,577.217 747.986,572.312 752.495,567.216 C753.462,566.122 754.245,565.564 755.768,566.715 C762.383,571.717 769.194,576.462 775.777,581.505 C779.873,584.642 781.99,588.808 780.776,594.165 C780.243,596.52 779.143,597.897 776.358,597.785 C771.381,597.586 766.391,597.729 761.407,597.73" fill="#FEFEFE"/>
    <path d="M872.088,597.731 C867.435,597.731 862.783,597.733 858.131,597.73 C856.641,597.729 855.208,597.696 853.774,597.009 C845.831,593.205 844.673,589.169 850.174,582.286 C854.312,577.107 858.966,572.343 863.338,567.347 C864.498,566.022 865.388,565.658 867.008,566.885 C873.487,571.791 880.169,576.432 886.617,581.379 C890.337,584.232 892.655,587.933 891.967,592.994 C891.522,596.269 890.259,598.029 886.538,597.802 C881.737,597.51 876.906,597.731 872.088,597.731" fill="#FEFEFE"/>
    <path d="M149.941,711.985 C143.654,707.344 137.13,705.79 130.151,706.068 C127.666,706.167 126.27,705.533 125.424,702.959 C122.995,695.564 120.404,688.213 117.583,680.959 C116.515,678.213 117.296,677.072 119.773,676.145 C125.359,674.056 130.935,671.926 136.425,669.601 C138.484,668.729 139.33,669.213 140.165,671.147 C144.563,681.34 149.106,691.471 153.526,701.655 C155.416,706.011 150.444,707.836 149.941,711.985" fill="#FF7164"/>
    <path d="M550.093,650.655 C539.273,664.706 527.581,676.126 513.813,685.369 C512.673,686.134 511.502,687.476 509.866,686.041 C506.816,683.365 502.921,682.266 498.996,680.56 C504.814,672.973 509.938,665.232 513.435,656.539 C513.921,655.331 514.743,654.828 516.062,654.677 C527.084,653.416 538.098,652.083 550.093,650.655" fill="#FF7164"/>
    <path d="M482.521,720.968 C478.503,721.005 474.519,720.736 470.748,719.216 C466.317,717.431 464.971,713.812 467.056,709.528 C471.006,701.412 486.526,693.415 495.425,694.909 C500.358,695.737 504.07,699.285 504.886,703.952 C505.793,709.14 502.973,714.962 497.987,717.874 C493.208,720.665 487.851,720.825 482.521,720.968" fill="#FF7164"/>
    <path d="M172.51,786.08 C178.359,788.798 184.023,790.867 190.373,789.522 C192.813,789.005 192.063,790.959 192.134,792.02 C192.576,798.551 185.724,806.7 179.204,807.686 C177.201,807.989 176.906,807.128 177.12,805.528 C178.057,798.512 176.156,792.19 172.51,786.08" fill="#FF7164"/>
    <path d="M494.751,656.163 C492.803,660.821 489.778,664.525 487.045,668.418 C485.488,670.634 484.447,669.772 483.5,668.007 C481.479,664.242 479.508,660.451 477.25,656.163 C483.433,656.163 488.919,656.163 494.751,656.163" fill="#FDF6E9"/>
    <path d="M882.84,421.029 C883.333,417.371 882.201,413.582 883.732,410.01 C883.788,414.051 884.703,418.136 883.092,422.088 C882.737,421.924 882.581,421.712 882.624,421.453 C882.672,421.17 882.743,421.029 882.84,421.029" fill="#CAAA96"/>
    <path d="M882.84,421.029 C882.923,421.382 883.007,421.734 883.092,422.088 C882.739,424.065 883.79,426.309 881.966,428.006 C882.182,425.671 881.145,423.179 882.84,421.029" fill="#CAAA96"/>
    <path d="M344.056,60.773 C344.042,60.433 344.027,60.094 344.012,59.754 C345.136,58.485 346.457,59.089 347.74,59.363 C346.51,59.834 345.283,60.304 344.056,60.773" fill="#B0C1D3"/>
    <path d="M306.413,482.004 C291.832,481.499 277.639,479.449 265.189,470.984 C252.798,462.557 251.824,449.221 262.091,438.185 C272.189,427.331 284.744,422.546 299.066,420.791 C313.513,419.021 326.755,421.885 338.827,429.883 C344.469,433.62 348.791,438.807 351.753,444.823 C356.349,454.157 352.857,463.291 342.312,470.729 C332.293,477.795 322.631,482.406 306.413,482.004" fill="#FFDBD4"/>
    <path d="M652.384,481.906 C639.114,482.747 626.744,477.998 616.015,469.209 C603.434,458.903 602.803,448.876 615.217,435.326 C624.161,425.563 635.922,421.884 649.038,420.675 C664.151,419.282 677.615,423.042 690.029,431.056 C697.103,435.623 702.861,441.762 704.775,450.31 C706.613,458.514 701.723,467.305 693.29,472.227 C682.189,478.705 668.949,481.906 652.384,481.906" fill="#FFDBD4"/>
    <path d="M332.032,386.27 C332.141,382.575 334.009,376.417 337.679,370.909 C339.138,368.719 339.343,367.393 337.037,365.632 C333.493,362.924 331.469,359.073 330.4,354.761 C329.643,351.704 330.79,349.36 333.715,348.399 C336.61,347.448 338.914,348.529 340.11,351.523 C340.663,352.909 341.184,354.331 341.926,355.617 C344.338,359.793 346.991,360.491 351.253,358.2 C370.31,347.955 390.824,355.601 398.059,375.645 C400.393,382.113 398.956,386.867 394.073,388.828 C388.927,390.894 384.572,388.328 382.093,381.769 C378.961,373.482 373.497,369.861 365.813,370.98 C357.29,372.22 349.865,379.951 349.04,388.453 C348.992,388.948 349.023,389.451 349,389.949 C348.679,396.965 345.766,400.262 340.068,400.065 C334.49,399.872 331.935,396.438 332.032,386.27" fill="#5F3900"/>
    <path d="M636.515,390.626 C636.565,395.89 633.435,399.729 628.594,400.054 C623.255,400.413 619.766,397.344 619.451,391.247 C619.017,382.852 615.474,376.577 607.924,372.826 C598.413,368.1 590.011,371.506 586.247,381.448 C585.836,382.533 585.586,383.696 585.053,384.713 C582.889,388.839 579.399,390.178 575.006,389.047 C570.953,388.003 568.44,384.165 569.063,379.881 C569.594,376.23 570.945,372.752 572.989,369.722 C574.736,367.131 574.995,365.409 572.456,363.045 C569.334,360.138 568,356.085 567.57,351.837 C567.266,348.824 568.339,346.521 571.53,345.912 C574.63,345.321 576.65,346.841 577.617,349.756 C578.033,351.011 578.139,352.376 578.623,353.597 C580.066,357.238 581.657,359.182 586.366,356.924 C607.122,346.968 633.469,362.254 635.974,385.39 C636.153,387.041 636.315,388.693 636.515,390.626" fill="#5F3900"/>
    <path d="M483.233,560.969 C473.847,560.818 467.217,557.291 461.433,551.925 C453.101,544.195 447.426,534.649 442.991,524.32 C441.097,519.908 442.647,515.826 446.466,514.292 C450.155,512.811 453.895,514.414 455.817,518.615 C459.648,526.986 463.999,534.993 470.834,541.358 C478.476,548.474 485.316,548.769 493.516,542.196 C500.223,536.819 504.042,529.472 507.156,521.653 C509.136,516.68 512.822,514.926 516.914,516.779 C520.289,518.307 521.408,521.061 520.918,524.549 C518.99,538.283 502.859,556.317 489.352,559.921 C486.925,560.568 484.491,561.067 483.233,560.969" fill="#5F3900"/>
    <path d="M367.041,220.346 C376.446,220.503 383.745,224.165 387.964,232.933 C389.76,236.664 389.164,239.968 385.338,241.769 C381.764,243.45 378.785,242.026 377.192,238.421 C374.911,233.256 370.584,232.133 365.664,232.599 C360.083,233.128 354.491,234.387 352.331,240.431 C350.802,244.712 347.99,245.899 344.251,244.747 C340.62,243.629 340.022,240.474 340.75,236.996 C341.854,231.726 345.283,228.199 349.575,225.44 C354.865,222.039 360.755,220.464 367.041,220.346" fill="#5F3900"/>
    <path d="M592.608,220.35 C599.512,220.6 606.697,222.791 612.656,228.131 C615.832,230.978 618.031,234.411 618.137,238.898 C618.208,241.91 617.16,244.226 614.084,244.897 C610.885,245.595 608.27,244.803 606.757,241.406 C603.546,234.198 594.037,230.39 586.717,233.231 C584.082,234.254 582.543,236.289 581.307,238.77 C579.528,242.342 576.456,243.41 572.981,241.611 C569.634,239.879 569.347,236.786 570.574,233.436 C573.471,225.525 581.65,220.431 592.608,220.35" fill="#5F3900"/>
    <path d="M480.396,385.098 C482.333,385.273 484.532,386.081 485.985,388.046 C488.054,390.843 490.13,393.678 491.797,396.72 C493.942,400.633 492.533,405.271 488.872,407.64 C485.451,409.855 480.726,409.334 478.064,406.003 C475.798,403.169 473.657,400.121 472.098,396.863 C469.417,391.264 473.806,384.912 480.396,385.098" fill="#5F3900"/>
    <path d="M544.804,842.391 C538.778,842.546 533.617,837.606 533.44,831.514 C533.263,825.433 538.07,820.284 544.162,820.029 C550.414,819.767 555.745,824.839 555.811,831.113 C555.874,837.083 550.846,842.236 544.804,842.391" fill="#5F3900"/>
    <path d="M554.974,776.039 C555.072,782.291 550.444,787.163 544.211,787.371 C538.114,787.574 533.037,782.777 532.839,776.627 C532.633,770.198 537.507,765.072 543.867,765.031 C549.984,764.99 554.876,769.84 554.974,776.039" fill="#5F3900"/>
    <path d="M413.843,775.979 C413.936,769.829 418.893,764.978 425.032,765.031 C431.346,765.085 436.195,770.245 435.987,776.687 C435.789,782.829 430.738,787.56 424.578,787.374 C418.453,787.19 413.75,782.197 413.843,775.979" fill="#5F3900"/>
    <path d="M554.137,721.322 C554.11,727.651 549.404,732.441 543.242,732.413 C537.201,732.385 532.083,727.375 532.003,721.41 C531.919,715.212 537.23,709.909 543.39,710.04 C549.517,710.169 554.165,715.048 554.137,721.322" fill="#5F3900"/>
    <path d="M435.152,831.377 C435.102,837.709 430.398,842.409 424.156,842.364 C418.147,842.321 413.067,837.252 413.012,831.246 C412.958,825.284 418.027,820.106 423.998,820.023 C430.363,819.935 435.204,824.862 435.152,831.377" fill="#5F3900"/>
    <path d="M425.548,710.04 C431.541,710.004 436.692,715.032 436.824,721.049 C436.96,727.227 431.661,732.517 425.438,732.418 C419.311,732.32 414.407,727.309 414.453,721.194 C414.499,715.123 419.519,710.077 425.548,710.04" fill="#5F3900"/>
  </g>
</svg>
