<?xml version="1.0" encoding="utf-8"?>

<!DOCTYPE svg PUBLIC "-//W3C//DTD SVG 1.1//EN" "http://www.w3.org/Graphics/SVG/1.1/DTD/svg11.dtd">
<svg version="1.1" id="Layer_1" xmlns="http://www.w3.org/2000/svg" xmlns:xlink="http://www.w3.org/1999/xlink" x="0px" y="0px"
	 viewBox="0 0 1674 1674" enable-background="new 0 0 1674 1674" xml:space="preserve">
<g>
	<path opacity="0.97" enable-background="new    " d="M152.994,1147.442c0.146-0.213,0.429-0.638,0.571-0.85
		c-0.151-0.213-0.454-0.634-0.605-0.843c0.58-0.444,1.161-0.883,1.751-1.327c-0.444-0.872-0.892-1.745-1.341-2.617
		c1.18-2.526,2.833-4.945,3.73-7.526c-0.907-0.828-1.985-1.532-2.97-2.306c0.795-1.081,0.79-2.346-0.093-3.402
		c1.024-0.799,2.082-1.576,3.155-2.342c-6.421-13.855-4.574,20.886-4.491-246.525c-0.122-1.114,0.429-2.445-0.722-3.347
		c-20.588-19.361-14.1-34.807-0.063-39.209c0.902-0.187-0.249-0.517-0.512-0.623c-13.323-4.26-20.104-19.665,0.556-38.989
		c1.11-1.063,0.69,13.385,0.736-240.403c0.883-3.281,3.15-6.287,4.525-9.476c-1.058-0.788-2.111-1.58-3.179-2.365
		c0.878-1.052,1.014-2.306,0.029-3.362c1.034-0.81,2.092-1.606,3.16-2.394c-1.195-2.489-2.653-4.909-3.76-7.416
		c0.224-0.946,0.809-1.811,1.248-2.713c-0.575-0.4-1.146-0.81-1.721-1.221c0.18-0.367,0.361-0.74,0.546-1.122
		c-0.137-0.183-0.414-0.55-0.556-0.733c0.575-0.385,1.151-0.77,1.731-1.169c-0.878-1.917-1.897-3.798-2.901-5.682
		c-1.087,1.855-2.053,3.746-2.935,5.656c0.522,0.385,1.044,0.766,1.56,1.144c-0.253,0.649-0.161,1.309,0.049,1.936
		c-0.536,0.4-1.073,0.792-1.614,1.169c0.439,0.913,0.995,1.804,1.253,2.749c-1.078,2.5-2.726,4.854-3.643,7.39
		c0.829,0.861,1.921,1.543,2.921,2.28c-0.692,1.147-0.785,2.412,0.102,3.512c-1.034,0.781-2.068,1.558-3.116,2.32
		c7.324,15.971,3.261-24.808,4.393,247.768c0.21,1.592-1.964,1.852-6.968,8.259c-12.483,15.75-69.788,15.545-82.286-19.645
		c-9.257-25.45,19.329-50.369,40.034-73.305c5.851-6.697,30.877-8.439,38.756,3.948c4.057,5.99,1.951,14.15-5.403,18.146
		c-14.381,7.955-31.729-5.458-20.548-13.967c4.502-3.545,14.539-3.081,16.267,3.622c-5.654-3.91-10.435,0.628-8.338,3.526
		c1.287,2.13,5.525,2.544,7.573,0.821c7.475-6.418-7.152-16.473-17.067-8.772c-12.63,9.717,7.151,25.216,23.016,16.053
		c20.846-11.761-1.754-39.43-31.14-26.716c10.77-12.878,22.225-27.446,18.422-42.49c-3.786-16.207-22.815-23.573-37.947-20.437
		c-14.425,2.825-19.574,13.828-12.717,19.685c7.766,7.013,22.91,2.974,19.9-4.755c-1.024-2.456-4.15-4.131-7.378-4.7
		c-3.691-0.531-7.085,2.57-5.671,5.194c1.43,3.428,10.258,4.343,10.118-2.463c2.204,1.587,2.667,4.227,1.117,6.195
		c-3.749,5.517-18.194,3.186-19.31-4.601c-2.52-18.188,49.211-21.229,49.991,11.39c-0.128,16.374-15.44,32.325-38.605,56.501
		c2.141-12.851-9.249-21.748-20.709-23.106c-14.706-1.838-28.579,8.719-24.01,19.047c4.978,12.983,27.713,10.834,29.155-0.011
		c0.871-6.816-9.176-12.167-16.248-7.805c-5.079,2.948-1.982,7.147,2.082,6.976c3.299,0.084,8.178-3.948,0.556-7.203
		c17.079-1.997,14.515,17.777-2.521,15.283c-12.176-1.609-18.396-15.082-3.92-22.295c21.017-10.433,41.589,12.157,32.364,22.82
		c-61.783,68.728,21.551,99.33,60.519,78.767c-6.646,13.323-2.02,22.951,8.051,27.534c-11.238,5.451-14.318,15.944-7.943,27.677
		c-33.847-17.735-85.766,2.199-83.5,37.124c0.961,20.32,22.467,40.065,23.708,42.828c3.657,9.691-3.423,19.857-15.102,23.117
		c-13.424,3.727-27.42-4.229-26.463-13.157c0.4-5.282,6.125-10.297,13.268-10.796c16.545-1.347,18.061,17.808,1.512,15.312
		c7.692-2.515,2.955-7.923-1.512-7.093c-2.901,0.374-4.613,2.991-3.301,4.964c5.296,7.668,21.602,1.73,18.066-7.354
		c-4.753-12.675-31.061-8.359-29.579,6.448c0.662,8.43,12.741,16.267,26.663,13.824c11.626-2.127,21.301-11.945,18.764-22.897
		c0.837,0.809,18.756,19.406,26.107,28.722c29.722,37.771-0.999,55.954-22.177,52.41c-12.008-2.012-17.381-9.894-14.526-15.198
		c4.884-9.779,26.101-5.48,17.715,3.578c-0.244-1.367-0.215-2.962-1.746-3.933c-2.336-1.822-6.939-1.276-8.309,1.067
		c-2.318,3.156,2.795,8.775,10.659,3.493c5.924-4.017,0.621-12.558-10.055-10.715c-11.166,1.584-15.667,12.464-3.506,20.012
		c21.852,12.178,62.001-5.797,41.443-41.713c-3.608-6.331-8.45-12.196-13.346-17.999c32.891,11.662,49.684-15.476,31.613-26.522
		c-14.152-8.911-34.832,3.514-25.01,14.381c5.622,6.784,20.199,4.296,20.348-2.944c0.476-6.355-7.974-7.075-9.65-3.219
		c-1.235,2.436,2.173,6.825,8.563,3.134c-0.585,4.432-7.587,6.976-12.805,5.268c-6.398-1.851-8.587-8.34-5.242-12.621
		c3.76-5.136,13.258-6.624,19.988-4.08c12.688,4.537,13.94,20.391-1.648,26.24c-12.954,5.1-26.617,0.108-29.443-3.197
		c-18.551-20.706-45.263-43.959-41.331-67.935c5.598-33.077,55.245-43.218,80.463-28.186c2.921,1.638,2.394,3.583,10.157,10.645
		c-0.531,280.524,1.898,232.15-4.247,248.468c0.658,1.03,2.058,1.69,3.062,2.533c-0.961,1.041-0.985,2.342-0.059,3.402
		c-0.985,0.836-2.326,1.492-3.004,2.496c1.048,2.489,2.502,4.883,3.701,7.335c-0.454,0.854-0.902,1.712-1.351,2.57
		c0.522,0.4,1.039,0.799,1.551,1.206c-0.185,0.685-0.18,1.378-0.005,2.064c-0.512,0.396-1.024,0.788-1.541,1.18
		c0.97,1.895,1.965,3.787,2.935,5.682c0.927-1.906,1.941-3.791,2.896-5.689C154.13,1148.369,153.564,1147.907,152.994,1147.442z"/>
	<path opacity="0.97" enable-background="new    " d="M525.169,154.705c0.462-0.575,0.924-1.141,1.389-1.712
		c0.213,0.146,0.638,0.429,0.85,0.57c0.213-0.151,0.634-0.453,0.843-0.605c0.444,0.58,0.883,1.161,1.327,1.751
		c0.872-0.444,1.745-0.892,2.617-1.341c2.526,1.18,4.945,2.833,7.526,3.73c0.828-0.907,1.532-1.985,2.306-2.97
		c1.081,0.795,2.346,0.79,3.402-0.093c0.799,1.024,1.576,2.082,2.342,3.155c13.855-6.421-20.886-4.574,246.525-4.491
		c1.115-0.122,2.445,0.429,3.347-0.722c19.361-20.588,34.807-14.1,39.209-0.063c0.187,0.902,0.517-0.249,0.623-0.512
		c4.26-13.323,19.665-20.104,38.99,0.556c1.063,1.11-13.385,0.69,240.403,0.736c3.281,0.883,6.287,3.15,9.476,4.525
		c0.788-1.058,1.58-2.111,2.365-3.179c1.052,0.878,2.306,1.014,3.362,0.029c0.81,1.034,1.606,2.092,2.394,3.16
		c2.489-1.195,4.908-2.653,7.416-3.76c0.946,0.224,1.811,0.809,2.713,1.248c0.4-0.575,0.81-1.146,1.221-1.721
		c0.367,0.18,0.74,0.361,1.122,0.546c0.183-0.137,0.55-0.414,0.733-0.556c0.385,0.575,0.77,1.151,1.169,1.731
		c1.917-0.878,3.798-1.897,5.682-2.901c-1.855-1.087-3.747-2.053-5.656-2.935c-0.385,0.522-0.766,1.044-1.144,1.56
		c-0.649-0.254-1.309-0.161-1.936,0.049c-0.399-0.536-0.792-1.073-1.169-1.614c-0.913,0.439-1.804,0.995-2.749,1.253
		c-2.5-1.078-4.854-2.726-7.39-3.643c-0.861,0.829-1.543,1.921-2.28,2.921c-1.147-0.692-2.412-0.785-3.512,0.102
		c-0.781-1.034-1.558-2.068-2.32-3.116c-15.971,7.323,24.808,3.261-247.768,4.393c-1.592,0.21-1.852-1.964-8.259-6.968
		c-15.75-12.483-15.545-69.788,19.645-82.286c25.449-9.257,50.369,19.329,73.305,40.034c6.697,5.852,8.438,30.877-3.948,38.756
		c-5.99,4.057-14.15,1.951-18.146-5.403c-7.955-14.382,5.459-31.728,13.967-20.548c3.545,4.502,3.081,14.539-3.622,16.267
		c3.91-5.654-0.628-10.435-3.526-8.338c-2.13,1.287-2.544,5.525-0.821,7.573c6.418,7.474,16.473-7.152,8.772-17.067
		c-9.717-12.63-25.216,7.151-16.053,23.016c11.761,20.846,39.43-1.755,26.716-31.14c12.878,10.77,27.446,22.225,42.49,18.422
		c16.207-3.785,23.573-22.815,20.437-37.947c-2.825-14.425-13.828-19.574-19.685-12.717c-7.013,7.766-2.974,22.91,4.755,19.9
		c2.456-1.024,4.131-4.15,4.699-7.378c0.531-3.691-2.57-7.085-5.194-5.671c-3.428,1.43-4.343,10.258,2.463,10.118
		c-1.587,2.204-4.227,2.667-6.195,1.117c-5.517-3.749-3.186-18.194,4.601-19.31c18.177-2.518,21.229,49.211-11.39,49.991
		c-16.374-0.128-32.325-15.44-56.501-38.605c12.851,2.141,21.748-9.249,23.105-20.709c1.838-14.706-8.719-28.579-19.047-24.011
		c-12.983,4.979-10.834,27.713,0.011,29.155c6.816,0.871,12.167-9.176,7.805-16.248c-2.948-5.079-7.147-1.982-6.976,2.082
		c-0.084,3.299,3.948,8.178,7.203,0.556c1.997,17.079-17.777,14.515-15.283-2.521c1.609-12.176,15.082-18.396,22.295-3.92
		c10.433,21.017-12.157,41.59-22.82,32.363c-68.729-61.782-99.33,21.551-78.767,60.519c-13.323-6.646-22.951-2.02-27.534,8.051
		c-5.451-11.238-15.944-14.318-27.677-7.943c17.735-33.847-2.199-85.766-37.124-83.5c-20.32,0.961-40.065,22.467-42.828,23.708
		c-9.691,3.657-19.857-3.423-23.117-15.102c-3.727-13.424,4.229-27.42,13.156-26.463c5.282,0.4,10.297,6.125,10.796,13.268
		c1.347,16.544-17.808,18.061-15.312,1.512c2.515,7.692,7.923,2.955,7.093-1.512c-0.374-2.901-2.991-4.613-4.964-3.301
		c-7.668,5.296-1.73,21.603,7.354,18.066c12.675-4.753,8.359-31.061-6.448-29.579c-8.43,0.662-16.267,12.741-13.824,26.663
		c2.127,11.626,11.945,21.301,22.897,18.764c-0.809,0.837-19.406,18.756-28.722,26.107c-37.771,29.722-55.954-0.999-52.41-22.177
		c2.012-12.008,9.894-17.381,15.198-14.526c9.779,4.884,5.48,26.101-3.578,17.715c1.367-0.244,2.962-0.215,3.933-1.746
		c1.822-2.336,1.276-6.939-1.067-8.309c-3.156-2.318-8.775,2.795-3.494,10.659c4.017,5.924,12.558,0.621,10.715-10.055
		c-1.584-11.166-12.464-15.667-20.011-3.506c-12.178,21.852,5.797,62.001,41.713,41.443c6.331-3.608,12.196-8.451,17.999-13.346
		c-11.662,32.891,15.476,49.684,26.522,31.613c8.911-14.152-3.514-34.833-14.381-25.01c-6.784,5.622-4.296,20.199,2.943,20.348
		c6.355,0.476,7.075-7.974,3.219-9.65c-2.436-1.236-6.825,2.173-3.134,8.563c-4.432-0.585-6.976-7.587-5.268-12.805
		c1.851-6.398,8.34-8.587,12.621-5.242c5.136,3.76,6.624,13.258,4.08,19.988c-4.537,12.688-20.391,13.94-26.24-1.648
		c-5.1-12.954-0.108-26.617,3.197-29.443c20.706-18.551,43.959-45.263,67.935-41.331c33.077,5.598,43.218,55.245,28.186,80.463
		c-1.638,2.921-3.583,2.394-10.646,10.157c-280.524-0.531-232.15,1.898-248.468-4.247c-1.03,0.658-1.69,2.058-2.533,3.062
		c-1.041-0.961-2.342-0.985-3.402-0.058c-0.836-0.985-1.492-2.326-2.496-3.004c-2.489,1.048-4.883,2.502-7.335,3.701
		c-0.854-0.453-1.712-0.902-2.57-1.351c-0.4,0.522-0.799,1.039-1.206,1.551c-0.686-0.185-1.378-0.18-2.064-0.005
		c-0.396-0.512-0.788-1.024-1.18-1.541c-1.895,0.97-3.787,1.965-5.682,2.935C521.386,152.735,523.27,153.75,525.169,154.705z"/>
	<path opacity="0.97" enable-background="new    " d="M1521.006,526.558c-0.146,0.213-0.429,0.638-0.571,0.85
		c0.151,0.213,0.453,0.634,0.605,0.843c-0.58,0.444-1.161,0.883-1.75,1.327c0.444,0.872,0.892,1.745,1.341,2.617
		c-1.18,2.526-2.833,4.945-3.73,7.526c0.907,0.828,1.985,1.532,2.97,2.306c-0.795,1.081-0.79,2.346,0.093,3.402
		c-1.024,0.799-2.082,1.576-3.155,2.342c6.421,13.855,4.574-20.886,4.491,246.525c0.122,1.114-0.429,2.445,0.722,3.347
		c20.588,19.361,14.1,34.807,0.063,39.209c-0.902,0.187,0.249,0.517,0.512,0.623c13.323,4.26,20.104,19.665-0.556,38.99
		c-1.11,1.063-0.69-13.385-0.736,240.403c-0.883,3.281-3.15,6.287-4.525,9.476c1.058,0.788,2.111,1.58,3.179,2.365
		c-0.878,1.052-1.014,2.306-0.029,3.362c-1.034,0.81-2.092,1.605-3.16,2.394c1.195,2.489,2.653,4.908,3.76,7.416
		c-0.224,0.946-0.809,1.811-1.248,2.713c0.575,0.4,1.146,0.81,1.721,1.221c-0.18,0.367-0.361,0.74-0.546,1.122
		c0.137,0.183,0.414,0.55,0.556,0.733c-0.575,0.385-1.151,0.77-1.731,1.169c0.878,1.917,1.897,3.798,2.901,5.682
		c1.087-1.855,2.053-3.746,2.936-5.656c-0.522-0.385-1.044-0.766-1.56-1.144c0.254-0.649,0.161-1.309-0.049-1.936
		c0.536-0.399,1.073-0.792,1.614-1.169c-0.439-0.913-0.995-1.804-1.253-2.749c1.078-2.5,2.726-4.854,3.642-7.39
		c-0.829-0.861-1.921-1.543-2.921-2.28c0.693-1.147,0.785-2.412-0.102-3.512c1.034-0.781,2.068-1.558,3.116-2.32
		c-7.323-15.971-3.261,24.808-4.394-247.768c-0.21-1.592,1.964-1.852,6.968-8.259c12.483-15.75,69.788-15.545,82.286,19.645
		c9.257,25.45-19.329,50.369-40.034,73.305c-5.851,6.697-30.877,8.439-38.756-3.948c-4.057-5.99-1.95-14.15,5.403-18.146
		c14.381-7.955,31.729,5.458,20.548,13.967c-4.503,3.544-14.539,3.081-16.267-3.622c5.654,3.91,10.435-0.628,8.338-3.527
		c-1.287-2.13-5.525-2.544-7.573-0.821c-7.474,6.418,7.152,16.473,17.067,8.772c12.63-9.717-7.151-25.216-23.016-16.053
		c-20.846,11.761,1.755,39.43,31.14,26.716c-10.77,12.878-22.225,27.446-18.422,42.49c3.786,16.207,22.815,23.573,37.947,20.437
		c14.425-2.825,19.574-13.828,12.717-19.685c-7.766-7.013-22.911-2.974-19.9,4.755c1.024,2.456,4.15,4.131,7.378,4.7
		c3.691,0.532,7.085-2.57,5.671-5.194c-1.43-3.428-10.258-4.343-10.118,2.463c-2.204-1.587-2.667-4.227-1.117-6.195
		c3.749-5.517,18.194-3.186,19.31,4.601c2.519,18.188-49.211,21.229-49.991-11.39c0.129-16.374,15.44-32.325,38.605-56.501
		c-2.141,12.851,9.249,21.748,20.71,23.106c14.706,1.838,28.579-8.719,24.01-19.047c-4.979-12.983-27.714-10.834-29.155,0.011
		c-0.871,6.816,9.176,12.167,16.247,7.805c5.079-2.948,1.982-7.147-2.082-6.976c-3.299-0.084-8.178,3.948-0.556,7.203
		c-17.082,1.997-14.51-17.776,2.521-15.283c12.176,1.609,18.396,15.082,3.92,22.295c-21.017,10.433-41.589-12.157-32.363-22.82
		c61.782-68.728-21.551-99.33-60.519-78.767c6.646-13.323,2.02-22.951-8.051-27.534c11.238-5.451,14.318-15.944,7.943-27.677
		c33.847,17.735,85.766-2.199,83.501-37.124c-0.961-20.32-22.467-40.065-23.708-42.828c-3.657-9.691,3.423-19.857,15.102-23.117
		c13.424-3.727,27.42,4.229,26.463,13.157c-0.4,5.282-6.125,10.297-13.268,10.796c-16.529,1.346-18.092-17.813-1.512-15.312
		c-7.692,2.515-2.955,7.923,1.512,7.093c2.901-0.374,4.613-2.991,3.301-4.964c-5.296-7.668-21.602-1.728-18.067,7.354
		c4.753,12.675,31.062,8.36,29.579-6.448c-0.662-8.43-12.741-16.267-26.663-13.824c-11.626,2.127-21.301,11.945-18.764,22.897
		c-0.838-0.809-18.756-19.406-26.107-28.722c-29.722-37.771,0.999-55.954,22.177-52.41c12.007,2.012,17.38,9.894,14.526,15.198
		c-4.884,9.779-26.101,5.48-17.715-3.578c0.244,1.367,0.214,2.962,1.746,3.933c2.336,1.822,6.939,1.276,8.309-1.067
		c2.318-3.156-2.795-8.775-10.66-3.493c-5.924,4.017-0.621,12.558,10.055,10.715c11.166-1.584,15.667-12.464,3.506-20.012
		c-21.852-12.178-62.001,5.797-41.443,41.713c3.608,6.331,8.451,12.196,13.346,17.999c-32.891-11.662-49.684,15.476-31.612,26.522
		c14.152,8.912,34.832-3.514,25.01-14.381c-5.622-6.784-20.199-4.296-20.348,2.944c-0.477,6.355,7.974,7.075,9.65,3.219
		c1.235-2.436-2.173-6.825-8.563-3.134c0.585-4.432,7.587-6.976,12.805-5.268c6.398,1.851,8.587,8.34,5.242,12.621
		c-3.76,5.136-13.259,6.624-19.988,4.08c-12.688-4.537-13.94-20.391,1.648-26.24c12.954-5.1,26.617-0.108,29.443,3.197
		c18.551,20.706,45.263,43.959,41.331,67.935c-5.598,33.077-55.245,43.218-80.463,28.186c-2.921-1.638-2.394-3.583-10.157-10.646
		c0.531-280.524-1.898-232.15,4.247-248.468c-0.658-1.03-2.058-1.69-3.062-2.533c0.96-1.041,0.985-2.342,0.058-3.402
		c0.985-0.836,2.326-1.492,3.004-2.496c-1.048-2.489-2.501-4.883-3.701-7.335c0.453-0.854,0.902-1.712,1.351-2.57
		c-0.522-0.4-1.039-0.799-1.551-1.206c0.185-0.686,0.18-1.378,0.005-2.064c0.512-0.396,1.024-0.788,1.541-1.18
		c-0.97-1.895-1.965-3.787-2.936-5.682c-0.927,1.906-1.941,3.79-2.896,5.689C1519.87,525.631,1520.436,526.092,1521.006,526.558z"/>
	<path opacity="0.97" enable-background="new    " d="M1148.831,1519.295c-0.462,0.575-0.924,1.141-1.389,1.712
		c-0.213-0.146-0.638-0.429-0.851-0.571c-0.213,0.151-0.634,0.453-0.843,0.605c-0.444-0.58-0.883-1.161-1.327-1.75
		c-0.873,0.444-1.745,0.892-2.617,1.341c-2.526-1.18-4.945-2.833-7.526-3.73c-0.828,0.907-1.532,1.985-2.306,2.97
		c-1.081-0.795-2.346-0.79-3.402,0.093c-0.799-1.024-1.576-2.082-2.342-3.155c-13.855,6.421,20.886,4.574-246.525,4.491
		c-1.115,0.122-2.445-0.429-3.347,0.722c-19.361,20.588-34.807,14.1-39.209,0.063c-0.187-0.902-0.517,0.249-0.623,0.512
		c-4.26,13.323-19.665,20.104-38.99-0.556c-1.063-1.11,13.385-0.69-240.403-0.736c-3.281-0.883-6.287-3.15-9.476-4.525
		c-0.788,1.058-1.58,2.111-2.364,3.179c-1.052-0.878-2.306-1.014-3.361-0.029c-0.81-1.034-1.606-2.092-2.394-3.16
		c-2.489,1.195-4.908,2.653-7.416,3.76c-0.946-0.224-1.811-0.809-2.713-1.248c-0.4,0.575-0.81,1.146-1.221,1.721
		c-0.367-0.18-0.74-0.361-1.122-0.546c-0.183,0.136-0.55,0.414-0.733,0.556c-0.385-0.575-0.77-1.151-1.169-1.731
		c-1.917,0.878-3.798,1.897-5.682,2.901c1.855,1.087,3.747,2.053,5.656,2.936c0.385-0.522,0.766-1.044,1.144-1.56
		c0.649,0.254,1.309,0.161,1.936-0.049c0.4,0.536,0.792,1.073,1.169,1.614c0.913-0.439,1.804-0.995,2.749-1.253
		c2.5,1.078,4.854,2.726,7.39,3.642c0.861-0.829,1.543-1.921,2.28-2.921c1.147,0.693,2.412,0.785,3.512-0.102
		c0.781,1.034,1.558,2.068,2.32,3.116c15.971-7.323-24.807-3.261,247.768-4.394c1.592-0.21,1.852,1.964,8.259,6.968
		c15.75,12.483,15.545,69.788-19.645,82.286c-25.449,9.257-50.369-19.329-73.305-40.034c-6.697-5.851-8.439-30.876,3.948-38.756
		c5.99-4.057,14.15-1.95,18.146,5.403c7.955,14.382-5.459,31.728-13.967,20.548c-3.545-4.502-3.081-14.539,3.622-16.267
		c-3.91,5.654,0.628,10.435,3.526,8.338c2.13-1.287,2.544-5.525,0.821-7.573c-6.418-7.474-16.473,7.152-8.772,17.067
		c9.717,12.63,25.216-7.151,16.053-23.016c-11.761-20.846-39.43,1.755-26.716,31.14c-12.878-10.77-27.446-22.225-42.49-18.422
		c-16.207,3.786-23.573,22.815-20.437,37.947c2.825,14.425,13.828,19.574,19.685,12.717c7.013-7.766,2.974-22.91-4.755-19.9
		c-2.456,1.024-4.131,4.15-4.699,7.378c-0.531,3.691,2.57,7.085,5.195,5.671c3.428-1.43,4.343-10.259-2.464-10.118
		c1.587-2.204,4.227-2.667,6.195-1.117c5.517,3.749,3.186,18.194-4.601,19.31c-18.177,2.518-21.229-49.211,11.39-49.991
		c16.374,0.128,32.325,15.439,56.501,38.605c-12.851-2.141-21.748,9.249-23.105,20.709c-1.838,14.706,8.719,28.579,19.047,24.01
		c12.983-4.979,10.834-27.713-0.011-29.155c-6.816-0.871-12.167,9.176-7.805,16.248c2.948,5.079,7.147,1.982,6.976-2.082
		c0.084-3.299-3.947-8.178-7.203-0.556c-1.997-17.081,17.776-14.511,15.283,2.521c-1.609,12.176-15.082,18.396-22.295,3.921
		c-10.433-21.017,12.156-41.59,22.82-32.363c68.729,61.781,99.33-21.551,78.767-60.519c13.323,6.646,22.951,2.02,27.534-8.051
		c5.451,11.238,15.944,14.318,27.677,7.943c-17.735,33.847,2.199,85.766,37.124,83.5c20.32-0.96,40.065-22.467,42.828-23.708
		c9.691-3.657,19.857,3.422,23.117,15.102c3.727,13.424-4.229,27.42-13.156,26.463c-5.282-0.4-10.297-6.124-10.796-13.268
		c-1.346-16.529,17.812-18.092,15.312-1.512c-2.515-7.692-7.923-2.955-7.093,1.512c0.374,2.901,2.991,4.613,4.964,3.301
		c7.668-5.296,1.73-21.603-7.354-18.066c-12.675,4.752-8.36,31.061,6.448,29.579c8.43-0.662,16.267-12.741,13.824-26.663
		c-2.127-11.626-11.945-21.301-22.897-18.764c0.809-0.837,19.406-18.756,28.722-26.107c37.771-29.722,55.954,0.999,52.41,22.177
		c-2.012,12.008-9.894,17.38-15.199,14.526c-9.779-4.884-5.48-26.101,3.578-17.715c-1.367,0.244-2.962,0.214-3.933,1.746
		c-1.822,2.336-1.276,6.939,1.067,8.309c3.156,2.318,8.775-2.795,3.494-10.659c-4.017-5.925-12.558-0.621-10.715,10.055
		c1.584,11.166,12.464,15.667,20.012,3.506c12.178-21.852-5.797-62.001-41.713-41.443c-6.331,3.608-12.196,8.451-17.999,13.346
		c11.662-32.891-15.476-49.683-26.522-31.613c-8.912,14.152,3.514,34.833,14.381,25.01c6.784-5.622,4.296-20.199-2.943-20.348
		c-6.355-0.477-7.075,7.974-3.219,9.65c2.436,1.236,6.825-2.173,3.134-8.563c4.432,0.585,6.976,7.587,5.268,12.805
		c-1.851,6.397-8.34,8.587-12.621,5.242c-5.136-3.76-6.624-13.259-4.08-19.988c4.537-12.688,20.391-13.94,26.24,1.648
		c5.1,12.954,0.108,26.617-3.197,29.443c-20.706,18.552-43.959,45.263-67.935,41.331c-33.077-5.598-43.218-55.245-28.186-80.462
		c1.638-2.921,3.583-2.394,10.646-10.157c280.524,0.531,232.15-1.898,248.468,4.247c1.03-0.658,1.69-2.058,2.533-3.062
		c1.041,0.96,2.342,0.985,3.402,0.058c0.836,0.985,1.492,2.326,2.496,3.004c2.489-1.048,4.883-2.501,7.335-3.701
		c0.854,0.453,1.712,0.902,2.57,1.351c0.399-0.522,0.799-1.039,1.206-1.551c0.686,0.185,1.378,0.18,2.064,0.005
		c0.396,0.512,0.788,1.024,1.18,1.541c1.895-0.97,3.787-1.965,5.682-2.936C1152.614,1521.265,1150.73,1520.25,1148.831,1519.295z"/>
	<path opacity="0.97" enable-background="new    " d="M56.479,183.181c0.961,27.029,22.467,53.295,23.708,56.969
		c3.657,12.891-3.423,26.414-15.102,30.749c-13.424,4.957-27.42-5.626-26.463-17.501c0.913-16.049,22.391-19.549,26.21-5.827
		c1.612,5.518-2.404,13.645-11.43,11.835c7.692-3.345,2.955-10.539-1.512-9.435c-2.901,0.497-4.613,3.979-3.301,6.602
		c2.311,4.452,8.533,5.925,12.751,3.36c12.837-7.275,2.402-26.762-11.986-22.684c-7.763,2.048-12.868,10.279-12.278,18.12
		c0.662,11.214,12.741,21.639,26.663,18.388c11.626-2.83,21.301-15.89,18.764-30.457c0.837,1.076,18.756,25.814,26.107,38.205
		c29.722,50.243-0.999,74.429-22.177,69.715c-12.008-2.676-17.381-13.16-14.526-20.217c4.884-13.008,26.101-7.29,17.715,4.759
		c-0.244-1.819-0.215-3.94-1.746-5.232c-2.336-2.423-6.939-1.697-8.309,1.419c-2.318,4.199,2.795,11.672,10.659,4.647
		c5.924-5.343,0.621-16.705-10.055-14.253c-11.166,2.107-15.667,16.579-3.506,26.619c21.852,16.199,62.001-7.711,41.443-55.487
		c-3.608-8.421-8.45-16.223-13.346-23.942c32.435,15.297,49.909-20.403,31.613-35.28c-13.992-11.72-34.973,4.466-25.01,19.129
		c5.622,9.024,20.199,5.715,20.348-3.916c0.476-8.453-7.974-9.411-9.65-4.281c-1.232,3.23,2.164,9.085,8.563,4.169
		c-0.585,5.895-7.587,9.279-12.805,7.007c-6.398-2.462-8.587-11.093-5.242-16.789c3.76-6.832,13.258-8.811,19.988-5.427
		c12.688,6.035,13.94,27.124-1.648,34.904c-12.954,6.784-26.617,0.144-29.443-4.252c-18.551-27.542-45.263-58.475-41.331-90.366
		c4.989-39.214,44.966-54.193,71.456-42.832l0.021,0.021c-9.129-21.47-1.452-60.095,35.969-70.087
		c33.853-9.257,67,19.329,97.51,40.034c8.877,5.831,11.27,30.856-5.252,38.756c-7.968,4.057-18.822,1.951-24.137-5.403
		c-10.451-14.205,7.079-31.908,18.578-20.548c4.715,4.502,4.099,14.539-4.818,16.267c5.2-5.654-0.835-10.435-4.691-8.338
		c-2.833,1.287-3.384,5.525-1.092,7.573c8.769,7.677,21.72-7.337,11.669-17.067c-13.1-12.801-33.399,7.337-21.353,23.016
		c15.64,20.841,52.45-1.754,35.538-31.14c17.13,10.77,36.508,22.225,56.52,18.422c21.559-3.785,31.356-22.815,27.185-37.947
		c-3.758-14.425-18.393-19.574-26.185-12.717c-9.329,7.766-3.956,22.91,6.325,19.9c3.267-1.024,5.495-4.15,6.251-7.378
		c0.707-3.691-3.418-7.085-6.91-5.671c-4.56,1.43-5.777,10.258,3.277,10.118c-2.111,2.204-5.622,2.667-8.241,1.117
		c-7.339-3.749-4.238-18.194,6.12-19.31c24.163-2.516,28.272,49.21-15.15,49.991c-21.78-0.128-42.999-15.44-75.157-38.605
		c17.094,2.141,28.929-9.249,30.735-20.709c2.445-14.706-11.597-28.579-25.337-24.011c-17.186,4.954-14.527,27.702,0.015,29.155
		c9.067,0.871,16.184-9.176,10.382-16.248c-3.922-5.079-9.507-1.982-9.28,2.082c-0.112,3.3,5.249,8.182,9.582,0.556
		c2.661,17.119-23.616,14.36-20.329-2.521c2.14-12.176,20.062-18.396,29.657-3.92c13.677,20.712-15.855,41.796-30.354,32.363
		c-8.182-5.53-16.623-10.718-25.571-14.921c-60.259-27.932-98.304,24.47-85.285,63.36l-0.223-0.223
		C94.804,116.643,54.476,142.119,56.479,183.181z"/>
	<path opacity="0.97" enable-background="new    " d="M510.434,150.443c-0.863-0.254-1.741-0.161-2.575,0.049
		c-0.531-0.536-1.053-1.073-1.555-1.614c-1.214,0.439-2.399,0.995-3.657,1.253c-3.326-1.078-6.456-2.726-9.83-3.643
		c-1.146,0.829-2.053,1.921-3.033,2.921c-1.526-0.692-3.209-0.785-4.671,0.102c-1.039-1.034-2.072-2.068-3.087-3.116
		c-21.244,7.323,32.999,3.261-329.579,4.393c-1.169,0.116-1.804-0.499-3.568-1.912c0.65,0.65,0.117,0.08,1.888,2.222
		c-0.531,373.152,1.898,308.804-4.247,330.51c0.658,1.37,2.058,2.248,3.062,3.369c-0.961,1.385-0.985,3.116-0.059,4.525
		c-0.985,1.112-2.326,1.985-3.004,3.321c1.048,3.311,2.502,6.495,3.701,9.757c-0.454,1.136-0.902,2.277-1.351,3.418
		c0.522,0.532,1.039,1.063,1.551,1.604c-0.185,0.912-0.18,1.833-0.005,2.745c-0.512,0.527-1.024,1.048-1.541,1.57
		c0.97,2.521,1.965,5.037,2.935,7.558c0.927-2.536,1.941-5.042,2.896-7.568c-0.575-0.614-1.141-1.229-1.712-1.848
		c0.146-0.283,0.429-0.849,0.571-1.131c-0.151-0.283-0.454-0.844-0.605-1.122c0.58-0.59,1.161-1.175,1.751-1.765
		c-0.444-1.161-0.892-2.321-1.341-3.482c1.18-3.36,2.833-6.578,3.73-10.011c-0.907-1.102-1.985-2.038-2.97-3.067
		c0.795-1.438,0.79-3.121-0.093-4.525c1.024-1.063,2.082-2.097,3.155-3.116c-6.421-18.429-4.574,27.783-4.491-327.926
		c-0.032-0.391-0.018-0.802,0-1.217l-0.171-0.171c10.63,0.36,62.308,0.13,316.865,0.165c4.364,0.883,8.363,3.15,12.605,4.525
		c1.048-1.058,2.102-2.111,3.145-3.179c1.399,0.878,3.067,1.014,4.471,0.029c1.078,1.034,2.136,2.092,3.184,3.16
		c3.311-1.195,6.529-2.653,9.865-3.76c1.258,0.224,2.409,0.809,3.608,1.248c0.531-0.575,1.078-1.146,1.624-1.721
		c0.488,0.18,0.985,0.361,1.492,0.546c0.244-0.137,0.731-0.414,0.975-0.556c0.512,0.575,1.024,1.151,1.556,1.731
		c2.55-0.878,5.052-1.897,7.558-2.901c-2.467-1.087-4.984-2.053-7.524-2.935C511.443,149.405,510.936,149.927,510.434,150.443z"/>
	<path opacity="0.97" enable-background="new    " d="M1163.937,152.994c0.283,0.146,0.849,0.429,1.131,0.57
		c0.283-0.151,0.844-0.453,1.122-0.605c0.59,0.58,1.175,1.161,1.765,1.751c1.161-0.444,2.321-0.892,3.482-1.341
		c3.36,1.18,6.578,2.833,10.011,3.73c1.102-0.907,2.038-1.985,3.067-2.97c1.439,0.795,3.121,0.79,4.525-0.093
		c1.063,1.024,2.097,2.082,3.116,3.155c18.429-6.421-27.783-4.574,327.926-4.491c0.391-0.032,0.802-0.018,1.217,0l0.17-0.17
		c-0.36,10.63-0.13,62.309-0.165,316.865c-0.883,4.364-3.15,8.363-4.525,12.605c1.058,1.048,2.111,2.102,3.179,3.145
		c-0.878,1.399-1.014,3.067-0.029,4.471c-1.034,1.078-2.092,2.136-3.16,3.184c1.195,3.311,2.653,6.529,3.76,9.865
		c-0.224,1.258-0.809,2.409-1.248,3.608c0.575,0.531,1.146,1.078,1.721,1.624c-0.18,0.488-0.361,0.985-0.546,1.492
		c0.137,0.244,0.414,0.731,0.556,0.975c-0.575,0.512-1.151,1.024-1.731,1.556c0.878,2.55,1.897,5.052,2.901,7.558
		c1.087-2.467,2.053-4.984,2.936-7.524c-0.522-0.512-1.044-1.019-1.56-1.521c0.254-0.863,0.161-1.741-0.049-2.575
		c0.536-0.531,1.073-1.053,1.614-1.555c-0.439-1.214-0.995-2.399-1.253-3.657c1.078-3.326,2.726-6.456,3.642-9.831
		c-0.829-1.146-1.921-2.053-2.921-3.033c0.693-1.526,0.785-3.209-0.102-4.671c1.034-1.039,2.068-2.072,3.116-3.087
		c-7.323-21.244-3.261,32.999-4.394-329.579c-0.116-1.169,0.499-1.804,1.912-3.568c-0.648,0.649-0.079,0.116-2.222,1.887
		c-373.151-0.531-308.804,1.898-330.51-4.247c-1.37,0.658-2.248,2.058-3.37,3.062c-1.385-0.961-3.116-0.985-4.525-0.058
		c-1.112-0.985-1.985-2.326-3.321-3.004c-3.311,1.048-6.495,2.502-9.757,3.701c-1.136-0.453-2.277-0.902-3.418-1.351
		c-0.532,0.522-1.063,1.039-1.604,1.551c-0.912-0.185-1.833-0.18-2.745-0.005c-0.527-0.512-1.048-1.024-1.57-1.541
		c-2.521,0.97-5.037,1.965-7.558,2.935c2.535,0.927,5.042,1.941,7.568,2.896C1162.703,154.13,1163.317,153.564,1163.937,152.994z"/>
	<path opacity="0.97" enable-background="new    " d="M1569.315,269.544c-10.77,17.13-22.225,36.508-18.422,56.52
		c3.786,21.559,22.815,31.356,37.947,27.185c14.425-3.758,19.574-18.394,12.717-26.185c-7.766-9.329-22.911-3.956-19.9,6.324
		c1.024,3.267,4.15,5.495,7.378,6.251c3.691,0.707,7.085-3.418,5.671-6.91c-1.43-4.56-10.258-5.776-10.118,3.277
		c-2.204-2.111-2.667-5.622-1.117-8.241c3.749-7.339,18.194-4.238,19.31,6.12c2.516,24.163-49.21,28.271-49.991-15.15
		c0.129-21.781,15.44-42.999,38.605-75.157c-2.141,17.094,9.249,28.929,20.71,30.735c14.706,2.445,28.579-11.597,24.01-25.337
		c-4.955-17.186-27.702-14.527-29.155,0.015c-0.871,9.066,9.176,16.184,16.247,10.381c5.079-3.922,1.982-9.507-2.082-9.279
		c-3.3-0.112-8.182,5.249-0.556,9.582c-17.119,2.662-14.359-23.616,2.521-20.329c12.176,2.14,18.396,20.062,3.92,29.657
		c-20.713,13.677-41.795-15.855-32.363-30.354c57.145-84.56-9.715-123.82-48.439-110.856l0.222-0.222
		c10.927-32.765-14.549-73.094-55.611-71.091c-27.029,0.961-53.295,22.467-56.969,23.708c-12.891,3.657-26.414-3.423-30.75-15.102
		c-4.957-13.424,5.626-27.42,17.501-26.463c7.027,0.4,13.697,6.125,14.36,13.268c1.771,16.35-23.725,18.245-20.368,1.512
		c3.345,7.692,10.539,2.955,9.435-1.512c-0.497-2.901-3.979-4.613-6.602-3.301c-10.123,5.256-2.405,21.633,9.782,18.066
		c16.698-4.707,11.323-31.076-8.577-29.579c-11.214,0.662-21.639,12.741-18.388,26.663c2.83,11.626,15.89,21.301,30.457,18.764
		c-1.076,0.837-25.814,18.756-38.205,26.107c-50.243,29.722-74.429-0.999-69.715-22.177c2.676-12.008,13.16-17.381,20.217-14.526
		c13.008,4.884,7.29,26.101-4.759,17.715c1.819-0.244,3.94-0.215,5.232-1.746c2.423-2.336,1.697-6.939-1.419-8.309
		c-4.199-2.318-11.672,2.795-4.647,10.659c5.344,5.924,16.705,0.621,14.253-10.055c-2.107-11.166-16.579-15.667-26.619-3.506
		c-16.199,21.852,7.711,62.001,55.486,41.443c8.421-3.608,16.223-8.451,23.942-13.346c-15.561,32.993,20.672,49.578,35.28,31.613
		c11.72-13.992-4.467-34.973-19.13-25.01c-9.024,5.622-5.715,20.199,3.916,20.348c8.453,0.476,9.411-7.974,4.281-9.65
		c-3.224-1.229-9.089,2.159-4.169,8.563c-5.895-0.585-9.28-7.587-7.007-12.805c2.462-6.398,11.094-8.587,16.789-5.242
		c6.832,3.76,8.811,13.258,5.427,19.988c-6.035,12.688-27.125,13.94-34.904-1.648c-6.784-12.954-0.144-26.617,4.252-29.443
		c27.542-18.551,58.474-45.263,90.366-41.331c39.214,4.989,54.193,44.966,42.832,71.456l-0.021,0.021
		c21.47-9.129,60.095-1.452,70.087,35.969c9.257,33.853-19.329,67-40.034,97.51c-5.845,8.899-30.87,11.239-38.756-5.252
		c-9.649-18.951,13.784-36.273,26.239-22.275c4.14,4.589,4.077,12.298-0.288,16.716c-4.503,4.715-14.539,4.099-16.267-4.818
		c5.654,5.2,10.435-0.835,8.338-4.691c-2.219-4.882-11.285-2.745-9.162,6.768c1.908,7.416,12.548,10.119,18.656,3.808
		c12.801-13.1-7.337-33.399-23.016-21.353C1517.335,249.646,1539.93,286.455,1569.315,269.544z"/>
	<path opacity="0.97" enable-background="new    " d="M1617.521,1490.819c-0.961-27.029-22.467-53.295-23.708-56.969
		c-3.657-12.891,3.423-26.414,15.102-30.75c13.424-4.957,27.42,5.626,26.463,17.501c-0.913,16.049-22.391,19.549-26.21,5.827
		c-1.612-5.518,2.404-13.646,11.43-11.834c-7.692,3.345-2.955,10.539,1.512,9.435c2.901-0.497,4.613-3.979,3.301-6.602
		c-2.312-4.452-8.533-5.925-12.751-3.36c-12.837,7.276-2.402,26.762,11.986,22.684c7.763-2.048,12.868-10.279,12.278-18.12
		c-0.662-11.214-12.741-21.639-26.663-18.388c-11.626,2.83-21.301,15.89-18.764,30.457c-0.838-1.076-18.756-25.814-26.107-38.205
		c-29.722-50.243,0.999-74.429,22.177-69.715c12.007,2.676,17.38,13.16,14.526,20.217c-4.884,13.008-26.101,7.29-17.715-4.759
		c0.244,1.819,0.214,3.94,1.746,5.232c2.336,2.423,6.939,1.697,8.309-1.419c2.318-4.199-2.795-11.672-10.66-4.647
		c-5.924,5.344-0.621,16.705,10.055,14.253c11.166-2.107,15.667-16.579,3.506-26.619c-21.852-16.199-62.001,7.711-41.443,55.486
		c3.608,8.421,8.451,16.223,13.346,23.942c-32.435-15.298-49.909,20.403-31.612,35.28c13.992,11.72,34.973-4.466,25.01-19.13
		c-5.622-9.024-20.199-5.715-20.348,3.916c-0.477,8.453,7.974,9.411,9.65,4.281c1.229-3.224-2.159-9.089-8.563-4.169
		c0.585-5.895,7.587-9.28,12.805-7.007c6.398,2.462,8.587,11.094,5.242,16.789c-3.76,6.832-13.259,8.811-19.988,5.427
		c-12.688-6.035-13.94-27.125,1.648-34.904c12.954-6.784,26.617-0.144,29.443,4.252c18.551,27.542,45.263,58.474,41.331,90.366
		c-4.989,39.214-44.967,54.193-71.456,42.832l-0.021-0.021c9.129,21.47,1.452,60.095-35.969,70.087
		c-33.853,9.257-67-19.329-97.51-40.034c-8.877-5.832-11.27-30.856,5.252-38.756c7.968-4.057,18.822-1.95,24.137,5.403
		c10.45,14.202-7.075,31.912-18.578,20.548c-4.715-4.502-4.099-14.539,4.818-16.267c-5.2,5.654,0.835,10.435,4.691,8.338
		c2.833-1.287,3.384-5.525,1.092-7.573c-8.768-7.678-21.72,7.337-11.669,17.067c13.1,12.801,33.399-7.337,21.353-23.016
		c-15.64-20.84-52.451,1.755-35.538,31.14c-17.13-10.77-36.508-22.225-56.52-18.422c-21.559,3.786-31.356,22.815-27.185,37.947
		c3.758,14.425,18.394,19.574,26.186,12.717c9.329-7.766,3.955-22.91-6.325-19.9c-3.267,1.024-5.495,4.15-6.251,7.378
		c-0.707,3.691,3.418,7.085,6.91,5.671c4.56-1.43,5.776-10.259-3.277-10.118c2.111-2.204,5.622-2.667,8.241-1.117
		c7.339,3.749,4.238,18.194-6.12,19.31c-24.163,2.516-28.272-49.211,15.15-49.991c21.78,0.128,42.999,15.439,75.157,38.605
		c-17.094-2.141-28.929,9.249-30.735,20.709c-2.445,14.706,11.597,28.579,25.337,24.01c17.186-4.954,14.538-27.701-0.015-29.155
		c-9.067-0.871-16.184,9.176-10.381,16.248c3.922,5.079,9.507,1.982,9.279-2.082c0.112-3.3-5.249-8.182-9.582-0.556
		c-2.663-17.127,23.615-14.356,20.329,2.521c-2.14,12.176-20.062,18.396-29.657,3.921c-13.677-20.713,15.854-41.796,30.354-32.363
		c8.182,5.53,16.623,10.718,25.571,14.921c60.259,27.932,98.304-24.47,85.285-63.36l0.222,0.222
		C1579.196,1557.357,1619.524,1531.881,1617.521,1490.819z"/>
	<path opacity="0.97" enable-background="new    " d="M1163.566,1523.557c0.863,0.254,1.741,0.161,2.575-0.049
		c0.531,0.536,1.053,1.073,1.555,1.614c1.214-0.439,2.399-0.995,3.657-1.253c3.326,1.078,6.456,2.726,9.831,3.642
		c1.146-0.829,2.053-1.921,3.033-2.921c1.526,0.693,3.209,0.785,4.672-0.102c1.039,1.034,2.072,2.068,3.087,3.116
		c21.244-7.323-32.999-3.261,329.579-4.394c1.169-0.116,1.804,0.499,3.568,1.912c-0.65-0.65-0.116-0.079-1.888-2.223
		c0.531-373.152-1.898-308.804,4.247-330.51c-0.658-1.37-2.058-2.248-3.062-3.37c0.96-1.385,0.985-3.116,0.058-4.525
		c0.985-1.112,2.326-1.985,3.004-3.321c-1.048-3.311-2.501-6.495-3.701-9.757c0.453-1.136,0.902-2.277,1.351-3.418
		c-0.522-0.532-1.039-1.063-1.551-1.604c0.185-0.912,0.18-1.833,0.005-2.745c0.512-0.527,1.024-1.048,1.541-1.57
		c-0.97-2.521-1.965-5.037-2.936-7.558c-0.927,2.536-1.941,5.042-2.896,7.568c0.575,0.614,1.141,1.229,1.712,1.848
		c-0.146,0.283-0.429,0.848-0.571,1.131c0.151,0.283,0.453,0.844,0.605,1.122c-0.58,0.59-1.161,1.175-1.75,1.765
		c0.444,1.161,0.892,2.321,1.341,3.482c-1.18,3.36-2.833,6.578-3.73,10.011c0.907,1.102,1.985,2.038,2.97,3.067
		c-0.795,1.439-0.79,3.121,0.093,4.525c-1.024,1.063-2.082,2.097-3.155,3.116c6.421,18.429,4.574-27.783,4.491,327.926
		c0.032,0.391,0.018,0.802,0,1.217l0.17,0.17c-10.63-0.36-62.309-0.13-316.865-0.165c-4.364-0.883-8.363-3.15-12.605-4.525
		c-1.048,1.058-2.102,2.111-3.145,3.179c-1.4-0.878-3.067-1.014-4.471-0.029c-1.078-1.034-2.136-2.092-3.184-3.16
		c-3.311,1.195-6.529,2.653-9.865,3.76c-1.258-0.224-2.409-0.809-3.609-1.248c-0.531,0.575-1.078,1.146-1.624,1.721
		c-0.488-0.18-0.985-0.361-1.492-0.546c-0.244,0.136-0.731,0.414-0.975,0.556c-0.512-0.575-1.024-1.151-1.555-1.731
		c-2.55,0.878-5.052,1.897-7.558,2.901c2.467,1.087,4.983,2.053,7.524,2.936C1162.557,1524.595,1163.064,1524.073,1163.566,1523.557
		z"/>
	<path opacity="0.97" enable-background="new    " d="M510.063,1521.006c-0.283-0.146-0.848-0.429-1.131-0.571
		c-0.283,0.151-0.844,0.453-1.122,0.605c-0.59-0.58-1.175-1.161-1.765-1.75c-1.161,0.444-2.321,0.892-3.482,1.341
		c-3.36-1.18-6.578-2.833-10.011-3.73c-1.102,0.907-2.038,1.985-3.067,2.97c-1.439-0.795-3.121-0.79-4.525,0.093
		c-1.063-1.024-2.097-2.082-3.116-3.155c-18.429,6.421,27.783,4.574-327.926,4.491c-0.391,0.032-0.802,0.018-1.217,0l-0.171,0.17
		c0.36-10.63,0.13-62.308,0.165-316.865c0.883-4.364,3.15-8.363,4.525-12.605c-1.058-1.048-2.111-2.102-3.179-3.145
		c0.878-1.4,1.014-3.067,0.029-4.471c1.034-1.078,2.092-2.136,3.16-3.184c-1.195-3.311-2.653-6.529-3.76-9.865
		c0.224-1.258,0.809-2.409,1.248-3.608c-0.575-0.531-1.146-1.078-1.721-1.624c0.18-0.488,0.361-0.985,0.546-1.492
		c-0.137-0.244-0.414-0.731-0.556-0.975c0.575-0.512,1.151-1.024,1.731-1.555c-0.878-2.55-1.897-5.052-2.901-7.558
		c-1.087,2.467-2.053,4.984-2.935,7.524c0.522,0.512,1.044,1.019,1.56,1.521c-0.253,0.863-0.161,1.741,0.049,2.575
		c-0.536,0.531-1.073,1.053-1.614,1.555c0.439,1.214,0.995,2.399,1.253,3.657c-1.078,3.326-2.726,6.456-3.643,9.831
		c0.829,1.146,1.921,2.053,2.921,3.033c-0.692,1.526-0.785,3.208,0.102,4.672c-1.034,1.038-2.068,2.072-3.116,3.087
		c7.324,21.244,3.261-32.999,4.393,329.579c0.116,1.169-0.499,1.804-1.912,3.568c0.65-0.65,0.08-0.117,2.223-1.888
		c373.152,0.531,308.804-1.898,330.51,4.247c1.37-0.658,2.248-2.058,3.369-3.062c1.385,0.96,3.116,0.985,4.525,0.058
		c1.112,0.985,1.985,2.326,3.321,3.004c3.311-1.048,6.495-2.501,9.757-3.701c1.136,0.453,2.277,0.902,3.418,1.351
		c0.531-0.522,1.063-1.039,1.604-1.551c0.912,0.185,1.833,0.18,2.745,0.005c0.527,0.512,1.048,1.024,1.57,1.541
		c2.521-0.97,5.037-1.965,7.558-2.936c-2.536-0.927-5.042-1.941-7.568-2.896C511.297,1519.87,510.683,1520.436,510.063,1521.006z"/>
	<path opacity="0.97" enable-background="new    " d="M104.685,1404.456c10.77-17.13,22.225-36.508,18.422-56.52
		c-3.786-21.559-22.815-31.356-37.947-27.185c-14.425,3.758-19.574,18.394-12.717,26.185c7.766,9.329,22.91,3.955,19.9-6.324
		c-1.024-3.267-4.15-5.495-7.378-6.251c-3.691-0.707-7.085,3.418-5.671,6.91c1.43,4.56,10.258,5.776,10.118-3.277
		c2.204,2.111,2.667,5.622,1.117,8.241c-3.749,7.339-18.194,4.238-19.31-6.12c-2.517-24.163,49.21-28.271,49.991,15.15
		c-0.128,21.781-15.44,42.999-38.605,75.157c2.141-17.094-9.249-28.929-20.709-30.735c-14.706-2.445-28.579,11.597-24.01,25.337
		c4.954,17.186,27.702,14.527,29.155-0.015c0.871-9.066-9.176-16.184-16.248-10.381c-5.079,3.922-1.982,9.507,2.082,9.279
		c3.3,0.112,8.182-5.25,0.556-9.582c17.118-2.662,14.36,23.616-2.521,20.329c-12.176-2.14-18.396-20.062-3.92-29.657
		c20.712-13.677,41.796,15.854,32.364,30.354c-57.145,84.559,9.714,123.82,48.439,110.856l-0.223,0.222
		c-10.927,32.765,14.55,73.094,55.611,71.091c27.029-0.96,53.295-22.467,56.969-23.708c12.891-3.657,26.414,3.422,30.749,15.102
		c4.957,13.424-5.626,27.42-17.501,26.463c-7.027-0.4-13.697-6.124-14.36-13.268c-1.771-16.351,23.724-18.245,20.368-1.512
		c-3.345-7.692-10.539-2.955-9.435,1.512c0.497,2.901,3.979,4.613,6.602,3.301c10.123-5.256,2.405-21.633-9.782-18.066
		c-16.698,4.707-11.323,31.076,8.577,29.579c11.214-0.662,21.639-12.741,18.388-26.663c-2.83-11.626-15.89-21.301-30.457-18.764
		c1.076-0.837,25.814-18.756,38.205-26.107c50.243-29.722,74.429,0.999,69.715,22.177c-2.676,12.008-13.16,17.38-20.217,14.526
		c-13.008-4.884-7.29-26.101,4.759-17.715c-1.819,0.244-3.94,0.214-5.232,1.746c-2.423,2.336-1.697,6.939,1.419,8.309
		c4.199,2.318,11.672-2.795,4.647-10.659c-5.344-5.925-16.705-0.621-14.253,10.055c2.107,11.166,16.579,15.667,26.619,3.506
		c16.199-21.852-7.711-62.001-55.487-41.443c-8.421,3.608-16.223,8.451-23.942,13.346c15.561-32.993-20.672-49.578-35.279-31.613
		c-11.72,13.992,4.466,34.973,19.129,25.01c9.024-5.622,5.715-20.199-3.916-20.348c-8.453-0.477-9.411,7.974-4.281,9.65
		c3.23,1.232,9.086-2.164,4.169-8.563c5.895,0.585,9.279,7.587,7.007,12.805c-2.463,6.397-11.093,8.587-16.789,5.242
		c-6.832-3.76-8.811-13.259-5.427-19.988c6.035-12.688,27.124-13.94,34.904,1.648c6.784,12.954,0.144,26.617-4.252,29.443
		c-27.542,18.552-58.475,45.263-90.366,41.331c-39.214-4.989-54.193-44.966-42.832-71.455l0.021-0.021
		c-21.47,9.129-60.095,1.452-70.087-35.969c-9.257-33.853,19.329-67,40.034-97.51c5.831-8.877,30.856-11.27,38.756,5.252
		c9.65,18.951-13.785,36.273-26.239,22.275c-4.14-4.589-4.077-12.298,0.288-16.716c4.502-4.715,14.539-4.099,16.267,4.818
		c-5.654-5.2-10.435,0.835-8.338,4.691c2.224,4.895,11.279,2.723,9.162-6.768c-1.908-7.416-12.548-10.119-18.656-3.808
		c-12.801,13.1,7.337,33.399,23.016,21.353C156.665,1424.354,134.07,1387.544,104.685,1404.456z"/>
</g>
</svg>
